<?xml version="1.0" encoding="utf-8"?>
<!-- Generator: Adobe Illustrator 16.0.0, SVG Export Plug-In . SVG Version: 6.00 Build 0)  -->
<!DOCTYPE svg PUBLIC "-//W3C//DTD SVG 1.1//EN" "http://www.w3.org/Graphics/SVG/1.1/DTD/svg11.dtd">
<svg version="1.1" id="Layer_1" xmlns="http://www.w3.org/2000/svg" xmlns:xlink="http://www.w3.org/1999/xlink" x="0px" y="0px"
	 width="1446px" height="243px" viewBox="0 0 1446 243" enable-background="new 0 0 1446 243" xml:space="preserve">
<path fill="#FFFFFF" d="M0,19c0,0,32.25,23.75,52.5,30.25c0,0,10.25,3.25,21.25,4.75c0,0,40,4,58,23.5c0,0,31.25,28,47.25,55.25
	c0,0,25.75,51.5,48.75,68.5c0,0,47.25,38.25,129.75,41.75c0,0,24-0.5,35.5-2l238-4c0,0,409.5,0,450.5-3.5l53.833-2.833
	c0,0,48.333-1.334,71-15.667c0,0,50.667-38.002,68.667-61.335c0,0,10.333-8.337,20.333-31.67c0,0,9-22.667,32-43
	c0,0,73.668-59.337,118.667-63.671V243H0V19z"/>
</svg>
