<svg width="165" height="170" viewBox="0 0 165 170" fill="none" xmlns="http://www.w3.org/2000/svg">
<g filter="url(#filter0_d)">
<path fill-rule="evenodd" clip-rule="evenodd" d="M51.5016 100.012C47.5297 98.7199 45.4751 95.1915 45.3379 89.4266V82.0602C45.3379 76.8257 43.3521 73.1473 39.3807 71.0251C43.3519 68.9264 45.3376 65.2828 45.3379 60.0944V52.6237C45.4756 46.859 47.5302 43.3307 51.5016 42.039L49.8486 37.1961C45.8081 38.3493 42.7492 40.2058 40.672 42.7654C38.5948 45.325 37.5216 48.6802 37.4525 52.8312V60.1644C37.4525 65.3764 35.2372 67.9823 30.8066 67.982V74.1392C35.237 74.1392 37.4523 76.7335 37.4525 81.922V89.29C37.6129 97.407 41.7449 102.607 49.8486 104.891L51.5016 100.012ZM59.3008 87.8369C61.998 91.3653 65.5275 93.1293 69.8892 93.1291C74.067 93.1291 77.4072 91.6072 79.9097 88.5633L80.3228 92.4375H87.8986V39.3057H79.5298V58.469C77.0973 55.7019 73.9073 54.3184 69.9598 54.3184C65.4835 54.3184 61.9138 56.0652 59.2507 59.5589C56.5876 63.0526 55.2566 67.6819 55.2577 73.4469C55.2559 79.5123 56.6036 84.309 59.3008 87.8369ZM65.8259 64.4362C67.2949 62.2802 69.3839 61.2021 72.0929 61.2019C75.5135 61.2019 77.9928 62.7009 79.5308 65.6988V81.6798C77.9468 84.7466 75.4446 86.2802 72.0243 86.2804C69.3383 86.2804 67.2665 85.2138 65.8088 83.0806C64.351 80.9473 63.6227 77.9782 63.6238 74.1733C63.6238 69.8381 64.3576 66.5924 65.8259 64.4362ZM105.529 55.0097H97.1617V92.4375H105.529V55.0097ZM97.8676 48.4549C98.6816 49.2968 99.8466 49.7177 101.363 49.7175C102.879 49.7173 104.049 49.2964 104.875 48.4549C105.284 48.0389 105.604 47.5439 105.818 46.9999C106.031 46.4559 106.132 45.8742 106.115 45.2899C106.133 44.6976 106.033 44.1077 105.82 43.5551C105.607 43.0025 105.285 42.4984 104.875 42.0728C104.049 41.2198 102.878 40.7932 101.363 40.793C99.8475 40.7928 98.6825 41.2194 97.8676 42.0728C97.4617 42.5009 97.1447 43.0058 96.9348 43.5581C96.7249 44.1104 96.6264 44.699 96.645 45.2899C96.6274 45.8728 96.7266 46.4533 96.9367 46.997C97.1467 47.5408 97.4632 48.0363 97.8676 48.4549ZM112.932 104.89C117.087 103.714 120.192 101.805 122.247 99.1646C124.302 96.5239 125.329 93.0476 125.329 88.7356V81.9217C125.329 76.7333 127.556 74.139 132.009 74.1388V67.9817C127.555 67.9817 125.329 65.3874 125.329 60.1988V53.2805C125.329 49.0145 124.307 45.5611 122.264 42.9205C120.221 40.2798 117.11 38.3716 112.932 37.1958L111.28 42.0386C115.32 43.3529 117.386 46.9503 117.478 52.8308V59.991C117.478 65.3873 119.567 69.0767 123.745 71.0593C119.566 73.0429 117.477 76.698 117.478 82.0244V89.2194C117.386 95.1 115.32 98.6975 111.28 100.012L112.932 104.89Z" fill="#E3E7EA"/>
</g>
<path fill-rule="evenodd" clip-rule="evenodd" d="M36.6116 129.48C36.5819 130.396 36.3321 131.064 35.8622 131.484C35.2838 131.94 34.5574 132.164 33.8238 132.114C32.7731 132.114 32.033 131.745 31.6035 131.007C31.1741 130.269 30.9593 129.04 30.9591 127.321V126.18C30.9811 124.594 31.2161 123.439 31.6643 122.716C31.886 122.36 32.2 122.071 32.5726 121.88C32.9452 121.689 33.3625 121.603 33.7799 121.631C34.7277 121.631 35.4329 121.845 35.8955 122.273C36.3582 122.701 36.6043 123.406 36.6337 124.387H40.4908C40.3291 122.579 39.657 121.161 38.4745 120.131C37.292 119.102 35.7272 118.587 33.7802 118.587C32.5226 118.561 31.2839 118.898 30.2103 119.556C29.1693 120.216 28.3468 121.171 27.8468 122.301C27.2748 123.606 26.9946 125.021 27.0258 126.446V127.242C27.0258 129.758 27.6319 131.706 28.8441 133.086C30.0563 134.466 31.7165 135.156 33.8248 135.156C34.9999 135.178 36.165 134.936 37.235 134.448C38.182 134.017 38.9868 133.324 39.5546 132.45C40.1154 131.558 40.4275 130.532 40.4581 129.477H36.6116V129.48ZM41.6583 129.469C41.7388 131.218 42.2935 132.604 43.3222 133.626C44.3509 134.648 45.7136 135.159 47.4102 135.159C49.1731 135.159 50.5701 134.611 51.6012 133.515C52.6323 132.42 53.1484 130.938 53.1492 129.071V128.938C53.1492 127.027 52.6351 125.516 51.6068 124.405C50.5785 123.295 49.1722 122.739 47.3878 122.739C46.3219 122.714 45.2684 122.973 44.3356 123.492C43.4702 123.992 42.7751 124.743 42.3411 125.646C41.865 126.642 41.6276 127.735 41.6481 128.839L41.6583 129.469ZM45.3715 128.396C45.4744 126.544 46.1466 125.617 47.3881 125.617C48.7543 125.617 49.4375 126.691 49.4377 128.839V129.215C49.408 131.259 48.7322 132.281 47.4102 132.281C47.1098 132.297 46.8103 132.234 46.5416 132.098C46.2729 131.962 46.0442 131.758 45.8784 131.506C45.5332 130.989 45.3606 130.178 45.3606 129.071L45.3715 128.396ZM54.7157 122.961V134.938H58.4292V126.481C58.5952 126.203 58.8339 125.975 59.1194 125.823C59.4049 125.671 59.7263 125.601 60.0489 125.619C60.688 125.619 61.1287 125.761 61.3712 126.046C61.6446 126.434 61.7731 126.906 61.7342 127.379V134.94H65.4586V127.222C65.4366 125.724 65.1189 124.603 64.5055 123.857C63.8922 123.112 62.9648 122.739 61.7233 122.739C61.0668 122.712 60.4136 122.846 59.8204 123.13C59.2271 123.413 58.7115 123.838 58.3184 124.366L58.1969 122.961H54.7157V122.961ZM73.3763 132.381C73.0422 132.612 72.64 132.721 72.2358 132.691C71.7551 132.711 71.2804 132.578 70.8805 132.309C70.6984 132.166 70.5532 131.982 70.4573 131.771C70.3614 131.56 70.3177 131.329 70.3297 131.097H66.8578C66.8646 131.819 67.1 132.521 67.53 133.1C68.0096 133.761 68.6563 134.281 69.4031 134.606C70.2632 134.987 71.1957 135.176 72.1358 135.159C73.6709 135.159 74.9216 134.816 75.8879 134.13C76.3346 133.845 76.7019 133.45 76.9553 132.984C77.2087 132.517 77.3399 131.994 77.3366 131.462C77.3366 129.861 76.4404 128.75 74.6481 128.13C74.0376 127.927 73.4134 127.768 72.7803 127.654C72.2381 127.579 71.7138 127.407 71.2322 127.145C71.0869 127.066 70.9653 126.95 70.88 126.808C70.7947 126.666 70.749 126.503 70.7475 126.337C70.7459 126.18 70.7809 126.025 70.8496 125.883C70.9184 125.742 71.019 125.619 71.1435 125.524C71.4213 125.301 71.769 125.185 72.1242 125.197C73.1303 125.197 73.6334 125.677 73.6337 126.636H77.358C77.369 126.084 77.244 125.537 76.9941 125.044C76.7442 124.552 76.3771 124.129 75.9255 123.813C74.9705 123.098 73.707 122.74 72.1351 122.74C70.6732 122.74 69.4905 123.096 68.587 123.808C68.1614 124.119 67.8163 124.528 67.5806 125.001C67.3448 125.474 67.2251 125.996 67.2317 126.525C67.2215 127.11 67.3866 127.685 67.7055 128.174C68.0591 128.688 68.5318 129.108 69.083 129.398C69.8046 129.777 70.5763 130.05 71.3748 130.211C72.0262 130.326 72.6597 130.527 73.2591 130.808C73.4042 130.876 73.5275 130.983 73.615 131.118C73.7025 131.252 73.7506 131.409 73.7541 131.57C73.7588 131.725 73.7271 131.88 73.6615 132.02C73.5958 132.161 73.4981 132.285 73.3763 132.381V132.381ZM86.2852 134.938H89.767V122.961H86.0308V131.362C85.6708 131.975 85.0647 132.281 84.2125 132.281C83.2207 132.281 82.7249 131.768 82.7252 130.742V122.961H79.0127V130.72C79.0127 132.152 79.3487 133.25 80.0208 134.013C80.6929 134.777 81.6829 135.159 82.9908 135.159C83.6038 135.181 84.213 135.055 84.7672 134.791C85.3214 134.527 85.8043 134.133 86.1753 133.643L86.2852 134.938ZM95.7173 117.936H91.9929V134.938H95.7173V117.935V117.936ZM98.6153 119.984V122.961H97.0947V125.551H98.6153V131.496C98.6153 132.728 98.9202 133.647 99.5301 134.252C100.14 134.857 101.084 135.159 102.362 135.159C103.072 135.162 103.778 135.054 104.455 134.838V132.171C104.15 132.219 103.841 132.241 103.531 132.237C103.189 132.28 102.845 132.184 102.573 131.972C102.382 131.697 102.296 131.364 102.33 131.031V125.551H104.292V122.961H102.33V119.983H98.6153V119.984ZM109.667 122.961H105.943V134.938H109.667V122.961V122.961ZM106.296 121.179C106.722 121.509 107.245 121.688 107.783 121.688C108.321 121.688 108.845 121.509 109.271 121.179C109.451 121.013 109.596 120.811 109.694 120.586C109.793 120.362 109.844 120.118 109.844 119.873C109.844 119.627 109.793 119.384 109.694 119.159C109.596 118.934 109.451 118.732 109.271 118.567C108.844 118.237 108.321 118.058 107.783 118.058C107.245 118.058 106.722 118.237 106.296 118.567C106.115 118.732 105.971 118.934 105.872 119.159C105.774 119.384 105.723 119.627 105.723 119.873C105.723 120.118 105.774 120.361 105.872 120.586C105.971 120.811 106.115 121.013 106.296 121.179V121.179ZM111.882 122.961V134.938H115.596V126.481C115.762 126.203 116 125.975 116.286 125.823C116.571 125.671 116.893 125.601 117.215 125.619C117.855 125.619 118.296 125.761 118.538 126.046C118.811 126.434 118.94 126.906 118.901 127.379V134.94H122.625V127.222C122.603 125.724 122.285 124.603 121.672 123.857C121.059 123.112 120.131 122.739 118.89 122.739C118.233 122.712 117.58 122.846 116.987 123.13C116.394 123.413 115.878 123.838 115.485 124.366L115.363 122.961H111.882V122.961ZM124.245 128.992C124.245 130.867 124.694 132.363 125.59 133.481C126.005 134.019 126.54 134.451 127.153 134.743C127.766 135.034 128.438 135.176 129.116 135.158C129.625 135.17 130.13 135.071 130.596 134.866C131.063 134.661 131.479 134.357 131.816 133.973V134.349C131.816 136.047 130.993 136.895 129.347 136.895C128.829 136.913 128.313 136.812 127.839 136.599C127.366 136.386 126.947 136.067 126.615 135.667L125.061 137.858C125.569 138.442 126.215 138.887 126.94 139.153C127.747 139.483 128.61 139.652 129.481 139.651C130.585 139.673 131.682 139.46 132.698 139.025C133.569 138.655 134.308 138.03 134.82 137.232C135.321 136.405 135.576 135.45 135.553 134.482V122.961H132.179L132.047 124.001C131.691 123.581 131.244 123.248 130.739 123.029C130.235 122.811 129.687 122.711 129.138 122.739C128.218 122.72 127.315 122.985 126.549 123.498C125.783 124.033 125.189 124.782 124.841 125.652C124.428 126.67 124.226 127.762 124.247 128.862V128.994L124.245 128.992ZM128.532 126.507C128.687 126.232 128.913 126.004 129.187 125.847C129.46 125.69 129.771 125.61 130.086 125.616C130.42 125.589 130.756 125.65 131.059 125.794C131.363 125.938 131.624 126.159 131.816 126.435V131.472C131.617 131.746 131.351 131.964 131.045 132.106C130.738 132.247 130.4 132.307 130.064 132.28C129.754 132.288 129.447 132.213 129.176 132.062C128.905 131.911 128.678 131.69 128.521 131.422C128.119 130.714 127.928 129.906 127.97 129.092C127.97 127.964 128.157 127.102 128.532 126.509V126.507Z" fill="#E3E7EA"/>
<defs>
<filter id="filter0_d" x="26.8066" y="37.1958" width="109.202" height="75.6948" filterUnits="userSpaceOnUse" color-interpolation-filters="sRGB">
<feFlood flood-opacity="0" result="BackgroundImageFix"/>
<feColorMatrix in="SourceAlpha" type="matrix" values="0 0 0 0 0 0 0 0 0 0 0 0 0 0 0 0 0 0 127 0" result="hardAlpha"/>
<feOffset dy="4"/>
<feGaussianBlur stdDeviation="2"/>
<feComposite in2="hardAlpha" operator="out"/>
<feColorMatrix type="matrix" values="0 0 0 0 0 0 0 0 0 0 0 0 0 0 0 0 0 0 0.25 0"/>
<feBlend mode="normal" in2="BackgroundImageFix" result="effect1_dropShadow"/>
<feBlend mode="normal" in="SourceGraphic" in2="effect1_dropShadow" result="shape"/>
</filter>
</defs>
</svg>
