<?xml version="1.0" encoding="utf-8"?>
<!-- Generator: Adobe Illustrator 16.0.0, SVG Export Plug-In . SVG Version: 6.00 Build 0)  -->
<!DOCTYPE svg PUBLIC "-//W3C//DTD SVG 1.1//EN" "http://www.w3.org/Graphics/SVG/1.1/DTD/svg11.dtd">
<svg version="1.1" id="Layer_1" xmlns="http://www.w3.org/2000/svg" xmlns:xlink="http://www.w3.org/1999/xlink" x="0px" y="0px"
	 width="720px" height="261px" viewBox="81.5 79 720 261" enable-background="new 81.5 79 720 261" xml:space="preserve">
<path id="_di_" fill="#FFFFFF" d="M156.066,301.8c-12.036-3.897-18.262-14.545-18.678-31.942v-22.229
	c0-15.796-6.018-26.896-18.052-33.3c12.034-6.333,18.051-17.329,18.052-32.985V158.8c0.417-17.396,6.643-28.043,18.678-31.941
	l-5.009-14.614c-12.244,3.48-21.514,9.082-27.808,16.806c-6.295,7.724-9.547,17.849-9.756,30.375v22.129
	c0,15.728-6.713,23.591-20.139,23.591v18.58c13.425,0,20.138,7.829,20.139,23.486v22.233c0.486,24.494,13.007,40.188,37.564,47.078
	L156.066,301.8z M179.7,265.061c8.173,10.648,18.869,15.971,32.086,15.971c12.66,0,22.782-4.593,30.365-13.778l1.252,11.69h22.957
	V118.611H241v57.828c-7.371-8.35-17.038-12.525-29-12.525c-13.564,0-24.382,5.271-32.452,15.814
	c-8.07,10.542-12.103,24.512-12.1,41.909C167.443,239.94,171.527,254.415,179.7,265.061z M199.473,194.446
	c4.451-6.506,10.782-9.76,18.991-9.76c10.365,0,17.878,4.523,22.539,13.57v48.225c-4.8,9.255-12.382,13.882-22.747,13.883
	c-8.139,0-14.417-3.219-18.835-9.656c-4.417-6.438-6.624-15.397-6.621-26.879C192.8,210.747,195.024,200.953,199.473,194.446
	L199.473,194.446z M319.786,166H294.43v112.943h25.356V166z M296.568,146.22c2.467,2.541,5.998,3.811,10.592,3.811
	c4.594-0.001,8.142-1.271,10.643-3.811c2.504-2.537,3.861-5.987,3.758-9.551c0.111-3.611-1.244-7.113-3.758-9.708
	c-2.504-2.574-6.051-3.861-10.643-3.862c-4.592-0.001-8.122,1.287-10.592,3.862c-2.483,2.61-3.818,6.106-3.704,9.708
	c-0.107,3.554,1.229,7,3.704,9.552V146.22z M342.22,316.52c12.591-3.548,21.999-9.307,28.227-17.275s9.34-18.459,9.339-31.471
	v-20.563c0-15.657,6.748-23.485,20.243-23.486v-18.58c-13.496,0-20.244-7.829-20.243-23.486v-20.877
	c0-12.874-3.096-23.294-9.287-31.263s-15.617-13.727-28.278-17.275l-5.008,14.614c12.243,3.966,18.504,14.822,18.782,32.567v21.607
	c0,16.284,6.33,27.417,18.99,33.4c-12.661,5.986-18.992,17.016-18.99,33.089v21.711c-0.279,17.746-6.54,28.602-18.782,32.568
	L342.22,316.52z"/>
<path id="Consulting" fill="#FFFFFF" d="M465.639,222.051c-0.09,2.763-0.848,4.777-2.271,6.047
	c-1.752,1.376-3.953,2.053-6.177,1.899c-3.185,0-5.427-1.113-6.728-3.34c-1.302-2.227-1.953-5.935-1.953-11.123v-3.441
	c0.066-4.786,0.779-8.271,2.137-10.454c1.369-2.19,3.834-3.449,6.411-3.273c2.872,0,5.009,0.646,6.411,1.937
	c1.401,1.292,2.147,3.418,2.236,6.381h11.688c-0.49-5.456-2.526-9.737-6.11-12.844c-3.583-3.105-8.324-4.659-14.225-4.659
	c-3.811-0.078-7.564,0.937-10.818,2.923c-3.154,1.991-5.646,4.875-7.162,8.283c-1.732,3.938-2.582,8.208-2.488,12.51v2.399
	c0,7.595,1.838,13.474,5.511,17.638s8.704,6.246,15.093,6.246c3.561,0.065,7.092-0.665,10.334-2.139
	c2.869-1.299,5.309-3.391,7.029-6.029c1.699-2.689,2.645-5.787,2.738-8.969h-11.656V222.051z M480.932,222.019
	c0.244,5.277,1.924,9.458,5.041,12.543c3.118,3.084,7.248,4.626,12.389,4.626c5.342,0,9.575-1.653,12.7-4.96
	c3.124-3.307,4.688-7.777,4.69-13.412v-0.4c0-5.768-1.558-10.327-4.674-13.679c-3.115-3.352-7.377-5.027-12.785-5.027
	c-3.229-0.077-6.422,0.707-9.248,2.271c-2.623,1.51-4.729,3.774-6.045,6.5c-1.442,3.004-2.162,6.305-2.1,9.637L480.932,222.019z
	 M492.184,218.778c0.312-5.59,2.349-8.384,6.111-8.384c4.14,0,6.21,3.239,6.211,9.72v1.136c-0.09,6.168-2.139,9.252-6.145,9.252
	c-1.853,0.1-3.619-0.79-4.643-2.338c-1.045-1.56-1.568-4.009-1.568-7.349L492.184,218.778z M520.5,202.378v36.143h11.252V213
	c1.025-1.712,2.916-2.714,4.908-2.6c1.938,0,3.272,0.429,4.008,1.286c0.828,1.17,1.217,2.596,1.1,4.024v22.814h11.285v-23.288
	c-0.066-4.521-1.029-7.904-2.887-10.154c-1.859-2.249-4.67-3.374-8.432-3.374c-4.039-0.165-7.899,1.672-10.318,4.91l-0.367-4.242
	L520.5,202.378L520.5,202.378z M577.047,230.805c-1.013,0.695-2.231,1.025-3.457,0.935c-1.456,0.062-2.895-0.342-4.106-1.152
	c-1.12-0.873-1.743-2.239-1.669-3.657h-10.521c0.021,2.18,0.734,4.297,2.037,6.046c1.453,1.992,3.413,3.561,5.676,4.543
	c2.607,1.15,5.433,1.72,8.281,1.67c4.652,0,8.442-1.036,11.37-3.107c2.752-1.748,4.41-4.79,4.39-8.05
	c0-4.832-2.715-8.184-8.146-10.054c-1.85-0.614-3.741-1.094-5.66-1.437c-1.643-0.228-3.232-0.748-4.691-1.537
	c-0.896-0.484-1.459-1.418-1.469-2.438c-0.01-0.962,0.436-1.872,1.2-2.455c0.843-0.672,1.896-1.021,2.972-0.986
	c3.049,0,4.574,1.448,4.574,4.344h11.286c0.067-3.387-1.562-6.583-4.341-8.519c-2.895-2.16-6.723-3.24-11.486-3.24
	c-4.43,0-8.014,1.074-10.752,3.224c-2.616,1.906-4.146,4.963-4.107,8.2c-0.03,1.765,0.471,3.499,1.437,4.977
	c1.071,1.551,2.504,2.817,4.174,3.691c2.187,1.144,4.525,1.97,6.945,2.454c1.974,0.348,3.894,0.953,5.71,1.801
	c0.896,0.418,1.479,1.31,1.5,2.3c0.029,0.951-0.396,1.859-1.145,2.446V230.805z M616.164,238.521h10.551v-36.144h-11.321v25.354
	c-1.091,1.848-2.928,2.771-5.511,2.771c-3.005,0-4.507-1.548-4.506-4.643v-23.482h-11.25v23.415c0,4.321,1.018,7.634,3.055,9.938
	c2.036,2.304,5.036,3.456,9,3.457c3.77,0.134,7.368-1.573,9.65-4.576L616.164,238.521z M644.746,187.213h-11.285v51.308h11.285
	V187.213L644.746,187.213z M653.528,193.394v8.984h-4.608v7.816h4.608v17.938c0,3.72,0.924,6.492,2.772,8.317
	c1.848,1.825,4.708,2.738,8.58,2.739c2.152,0.008,4.293-0.319,6.345-0.97v-8.05c-0.927,0.146-1.862,0.214-2.8,0.2
	c-1.037,0.129-2.082-0.158-2.905-0.8c-0.577-0.828-0.837-1.835-0.735-2.839v-16.537h5.944v-7.816h-5.944v-8.984L653.528,193.394
	L653.528,193.394z M687.02,202.378h-11.286v36.143h11.286V202.378L687.02,202.378z M676.803,197c2.655,2.05,6.359,2.05,9.015,0
	c2.177-1.989,2.329-5.367,0.339-7.544c-0.107-0.118-0.221-0.231-0.339-0.339c-2.656-2.048-6.358-2.048-9.015,0
	c-2.177,1.99-2.328,5.368-0.338,7.544C676.572,196.779,676.685,196.892,676.803,197L676.803,197z M693.731,202.378v36.143h11.253
	V213c1.025-1.712,2.916-2.714,4.908-2.6c1.938,0,3.273,0.429,4.007,1.286c0.828,1.17,1.218,2.596,1.101,4.024v22.814h11.285v-23.288
	c-0.066-4.521-1.029-7.904-2.888-10.154c-1.858-2.249-4.669-3.374-8.431-3.374c-4.039-0.165-7.9,1.672-10.318,4.91l-0.368-4.242
	L693.731,202.378L693.731,202.378z M731.195,220.578c0,5.656,1.357,10.171,4.074,13.544c2.55,3.296,6.52,5.176,10.685,5.062
	c3.122,0.075,6.116-1.232,8.182-3.574v1.135c0,5.122-2.493,7.683-7.48,7.683c-3.185,0.11-6.241-1.259-8.28-3.707l-4.709,6.613
	c1.539,1.761,3.498,3.105,5.694,3.908c2.445,0.994,5.061,1.504,7.7,1.5c3.347,0.069,6.67-0.574,9.75-1.887
	c2.638-1.117,4.878-3.003,6.428-5.411c1.521-2.497,2.292-5.378,2.221-8.3v-34.767h-10.222l-0.399,3.141
	c-2.187-2.572-5.445-3.979-8.815-3.809c-2.788-0.057-5.526,0.741-7.847,2.288c-2.322,1.616-4.12,3.876-5.176,6.5
	c-1.252,3.073-1.864,6.369-1.8,9.688v0.399L731.195,220.578z M744.186,213.078c0.957-1.691,2.764-2.724,4.708-2.688
	c2.063-0.166,4.058,0.775,5.242,2.472v15.2c-1.226,1.681-3.236,2.604-5.31,2.438c-1.912,0.051-3.703-0.94-4.675-2.589
	c-1.217-2.136-1.796-4.576-1.669-7.031c0-3.405,0.567-6.004,1.703-7.796V213.078z"/>
</svg>
