<svg width="763" height="670" viewBox="0 0 763 670" fill="none" xmlns="http://www.w3.org/2000/svg">
<path d="M502.543 438.741C503.278 365.236 400.666 304.617 273.353 303.343C146.04 302.07 42.2369 360.626 41.5018 434.131C40.7668 507.635 143.378 568.255 270.691 569.528C398.004 570.801 501.808 512.246 502.543 438.741Z" fill="#E5F3F9"/>
<path d="M733.53 342.917C733.927 269.414 631.044 209.269 503.733 208.58C376.422 207.891 272.893 266.919 272.495 340.423C272.098 413.927 374.981 474.072 502.293 474.76C629.604 475.449 733.132 416.421 733.53 342.917Z" fill="#E5F3F9"/>
<path d="M762.129 528.115C762.356 486.159 703.627 451.828 630.953 451.435C558.28 451.042 499.182 484.735 498.955 526.691C498.728 568.647 557.457 602.977 630.131 603.37C702.805 603.764 761.902 570.07 762.129 528.115Z" fill="#E5F3F9"/>
<path fill-rule="evenodd" clip-rule="evenodd" d="M100.976 394.828C100.976 394.828 119.298 416.222 124.178 417.66C129.058 419.098 124.657 424.196 120.91 424.523C117.163 424.85 105.246 424.392 101.76 420.972C98.2741 417.551 88.4485 413.913 88.4485 413.913C88.3261 407.78 89.2243 401.669 91.1064 395.83L100.976 394.828Z" fill="#112B46"/>
<path fill-rule="evenodd" clip-rule="evenodd" d="M107.402 243.61C107.402 243.61 109.776 290.973 108.905 306.507C108.033 322.041 104.264 399.164 104.264 399.164C98.8734 400.525 93.2286 400.525 87.8376 399.164C84.5479 340.036 84.635 322.912 83.6982 314.198C82.7614 305.483 81.5849 279.971 81.5849 279.971C74.5044 265.331 81.9117 246.29 85.3975 241.693C88.8833 237.096 107.402 243.61 107.402 243.61Z" fill="#112B46"/>
<path fill-rule="evenodd" clip-rule="evenodd" d="M71.0408 415.155C71.6508 423.869 74.7662 434.022 75.5723 439.12C75.9159 440.815 75.8996 442.564 75.5243 444.253C75.149 445.942 74.4231 447.533 73.3937 448.924C72.1954 450.579 57.5551 445.743 55.5507 440.1C53.5464 434.458 57.7294 429.512 57.969 418.946C62.6095 410.558 71.0408 415.155 71.0408 415.155Z" fill="#112B46"/>
<path fill-rule="evenodd" clip-rule="evenodd" d="M92.1733 247.292C92.1733 247.292 89.6679 290.429 85.6375 304.786C81.607 319.144 78.0994 361.278 76.4001 368.62C74.7007 375.962 72.6528 421.343 72.6528 421.343C67.3167 422.73 61.7147 422.73 56.3785 421.343C56.5746 378.838 55.5288 344.307 56.3785 332.651C57.2282 320.995 56.0953 286.508 56.0953 286.508C52.3045 270.43 52.0866 268.382 56.0953 257.706C60.104 247.031 77.228 238.578 92.1733 247.292Z" fill="#21496D"/>
<path fill-rule="evenodd" clip-rule="evenodd" d="M100.473 144.898C115.375 149.081 123.349 186.488 127.532 195.006C131.714 203.525 166.551 205.42 166.551 205.42C168.729 212.719 162.738 220.366 162.738 220.366C129.253 218.971 117.466 216.183 111.257 202.937C105.048 189.691 83.1747 149.451 100.473 144.898Z" fill="#3868BB"/>
<path fill-rule="evenodd" clip-rule="evenodd" d="M100.474 144.896C87.2716 144.308 56.6183 151.192 46.5313 164.046C36.4442 176.9 51.0846 199.667 54.5922 213.37C58.0998 227.074 52.98 261.496 52.98 264.786C68.6443 275.178 106.378 276.485 110.605 260.995C112.348 244.154 108.426 224.133 108.274 214.285C108.796 193.131 117.99 151.214 100.474 144.896Z" fill="white"/>
<path fill-rule="evenodd" clip-rule="evenodd" d="M89.1225 148.079C97.641 177.969 99.6453 211.499 98.8174 224.178C97.9896 236.858 97.641 277.86 97.641 277.86C107.554 272.653 111.889 263.11 111.889 258.753C111.889 254.396 108.164 217.359 108.273 214.331C108.382 211.302 113.284 177.294 111.889 162.044C110.495 146.793 100.473 144.898 100.473 144.898H87.75L89.1225 148.079Z" fill="#23489D"/>
<path fill-rule="evenodd" clip-rule="evenodd" d="M97.3379 112.02C103.155 113.85 97.3379 127.096 97.3379 127.096V112.02Z" fill="#20318D"/>
<path fill-rule="evenodd" clip-rule="evenodd" d="M97.6426 113.763C98.8778 118.219 99.342 122.854 99.0151 127.467C98.1872 133.48 97.6426 145.484 92.3049 149.253C86.9673 153.022 79.2332 148.643 74.2441 144.329C71.0718 141.628 68.4961 138.296 66.6808 134.545C64.8655 130.794 63.8502 126.707 63.6995 122.543C63.5688 112.957 67.3379 101.193 81.1286 101.781C94.9193 102.369 97.6426 113.763 97.6426 113.763Z" fill="#FFC8AF"/>
<path fill-rule="evenodd" clip-rule="evenodd" d="M70.6922 135.942C70.6922 135.942 71.7598 148.295 68.5136 152.87C68.274 155.899 76.9885 168.796 85.6594 166.53C90.7138 165.223 90.0167 159.341 90.0167 159.341C89.7346 154.261 89.7346 149.17 90.0167 144.09L70.6922 135.942Z" fill="#FFC8AF"/>
<path fill-rule="evenodd" clip-rule="evenodd" d="M101.043 103.503C103.003 110.605 100.76 113.176 94.7683 115.202C88.7771 117.228 72.8731 112.544 72.8731 112.544C73.9624 120.147 71.5659 124.112 71.5659 124.112C68.9298 116.618 66.5115 120.43 66.2718 126.422C66.0322 132.413 69.4091 132.26 69.4091 132.26C69.1694 137.293 67.5355 139.014 67.5355 139.014C61.1303 134.657 52.2851 104.919 63.9625 104.156C64.1586 93.8948 96.838 88.2521 101.043 103.503Z" fill="#112B46"/>
<path fill-rule="evenodd" clip-rule="evenodd" d="M68.0787 150.888C78.3618 172.675 83.743 192.282 83.329 210.278C82.9151 228.273 79.4075 280.299 79.4075 280.299C61.5428 275.942 49.386 270.909 45.922 264.831C53.569 244.678 56.3359 231.127 54.7672 225.397C53.1986 219.668 39.7347 175.964 46.7281 162.98C53.264 155.79 68.0787 150.888 68.0787 150.888Z" fill="#23489D"/>
<path fill-rule="evenodd" clip-rule="evenodd" d="M52.4993 162.609C64.8085 168.731 74.5688 202.652 83.9587 211.737C89.2745 216.9 115.527 223.632 122.825 223.806C125.658 230.342 120.647 237.401 120.647 237.401C75.8106 233.196 73.8281 230.735 60.0373 213.153C42.8698 191.301 36.0289 158.404 52.4993 162.609Z" fill="#2865D8"/>
<path fill-rule="evenodd" clip-rule="evenodd" d="M89.995 150.518C86.2696 151.934 80.8012 149.69 73.7207 143.982C73.7207 143.982 75.8993 152.326 89.995 155.376V150.518Z" fill="#F4AE92"/>
<path fill-rule="evenodd" clip-rule="evenodd" d="M70.3651 147.99C69.7143 149.01 68.9859 149.979 68.1865 150.887C68.1865 150.887 72.5438 160.648 74.2431 164.939C75.5926 167.968 77.5849 170.666 80.0818 172.848L85.877 166.53C77.7943 162.325 70.3651 147.99 70.3651 147.99Z" fill="white"/>
<path fill-rule="evenodd" clip-rule="evenodd" d="M89.494 151.106C88.9494 150.452 87.6857 163.284 85.7686 166.531C87.4975 168.282 89.4896 169.752 91.6726 170.888C91.6726 170.888 93.8948 156.596 89.494 151.106Z" fill="white"/>
<path fill-rule="evenodd" clip-rule="evenodd" d="M482.889 284.328C482.453 290.733 481.865 297.139 481.865 297.139H480.427C480.427 297.139 480.427 287.444 478.924 289.492C479.12 284.154 482.889 284.328 482.889 284.328Z" fill="#112B46"/>
<path fill-rule="evenodd" clip-rule="evenodd" d="M463.106 295.222C462.409 295.222 461.494 294.481 460.666 293.348C462.126 291.605 463.564 289.927 464.522 288.577C467.616 284.219 472.605 274.808 472.845 270.538C473.084 266.268 470.47 221.628 469.751 216.181C469.032 210.734 466.984 190.037 467.18 188.883C467.376 187.728 486.374 196.203 486.374 196.203C486.134 197.902 483.563 208.578 484.609 215.462C485.655 222.346 487.311 226.9 486.374 238.142C485.437 249.383 479.947 267.444 481.864 275.984C481.852 276.137 481.852 276.29 481.864 276.442C476.374 284.067 474.391 298.969 463.106 295.222Z" fill="#FFC8AF"/>
<path fill-rule="evenodd" clip-rule="evenodd" d="M460.667 293.327C461.495 294.459 462.41 295.2 463.107 295.2C474.392 298.969 476.375 284.067 481.952 276.42C483.717 284.525 482.932 285.484 481.451 286.66C479.969 287.836 474.741 294.242 473.782 298.751C472.823 303.261 458.532 302.804 455.983 301.845C454.131 301.191 457.442 297.161 460.667 293.327Z" fill="#112B46"/>
<path fill-rule="evenodd" clip-rule="evenodd" d="M502.366 234.656C502.911 239.645 505.83 278.229 505.351 284.525C504.567 289.606 503.468 294.634 502.061 299.579C501.31 301.852 501.057 304.259 501.32 306.638C502.453 309.928 502.518 319.71 507.856 317.531C513.194 315.352 516.679 308.512 515.59 300.973C514.501 293.435 515.808 289.797 515.59 285.287C515.372 280.778 518.313 252.761 518.793 242.804C519.272 232.848 515.939 228.077 515.677 221.432C515.853 214.561 516.45 207.707 517.464 200.909C517.464 200.909 494.566 188.927 496.44 203.393C498.314 217.859 501.799 229.689 502.366 234.656Z" fill="#FFC8AF"/>
<path fill-rule="evenodd" clip-rule="evenodd" d="M500.383 306.943C500.731 313.632 502.561 319.666 507.812 317.466C513.062 315.266 516.635 308.446 515.546 300.908C512.714 309.209 501.821 308.86 502.06 299.536C501.296 301.954 500.734 304.432 500.383 306.943V306.943Z" fill="#112B46"/>
<path fill-rule="evenodd" clip-rule="evenodd" d="M465.634 141.15C465.634 141.15 465.634 187.511 465.634 202.739C465.634 217.968 469.577 269.231 469.577 269.231C474.568 270.918 480.011 270.669 484.827 268.534C485.939 255.288 489.838 233.48 490.492 222.042C491.146 210.604 485.939 208.665 488.117 200.256C490.296 191.846 496.156 147.097 496.156 147.097L465.634 141.15Z" fill="#EC827D"/>
<path fill-rule="evenodd" clip-rule="evenodd" d="M490.535 150.91C490.535 150.91 494.5 200.713 496.2 207.031C497.899 213.349 499.119 237.662 500.361 246.028C501.603 254.394 501.733 278.533 501.733 278.533C504.762 288.381 517.245 280.059 517.245 280.059C522.452 249.209 518.857 233.872 518.705 224.83C518.552 215.789 522.953 192.151 522.06 182.282C521.167 172.413 520.099 152.021 522.06 148.208C524.021 144.395 526.134 138.121 526.831 126.749C512.038 121.171 488.988 127.468 488.988 127.468L490.535 150.91Z" fill="#EC827D"/>
<path fill-rule="evenodd" clip-rule="evenodd" d="M467.854 42.5018C480.926 41.8482 503.061 57.2946 513.083 69.9307C523.104 82.5667 516.895 96.2921 513.518 109.843C510.142 123.394 515.37 157.315 515.37 160.583C499.967 170.91 471.188 172.217 466.918 156.945C465.109 140.322 468.835 122.98 468.987 113.242C468.377 92.3923 450.621 48.8198 467.854 42.5018Z" fill="white"/>
<path fill-rule="evenodd" clip-rule="evenodd" d="M479.25 45.5731C472.474 75.0717 474.609 106.945 476.113 119.429C477.616 131.912 477.899 173.524 477.899 173.524C467.834 168.448 463.041 159.036 462.801 154.766C462.562 150.496 466.461 114.418 466.178 111.477C465.895 108.535 460.775 80.6926 461.32 65.7254C461.864 50.7582 467.529 48.2964 467.529 48.2964L480.448 42.5012L479.25 45.5731Z" fill="#FBD15B"/>
<path fill-rule="evenodd" clip-rule="evenodd" d="M498.139 48.6672C488.095 70.1485 492.932 89.8215 493.367 107.49C493.803 125.159 502.975 174.744 502.975 174.744C520.557 170.387 522.583 158.579 526.047 152.566C534.173 111.172 523.868 77.7083 516.308 65.4209C510.317 55.5735 498.139 48.6672 498.139 48.6672Z" fill="#FBD15B"/>
<path d="M427.377 115.463C428.752 116.156 430.27 116.517 431.81 116.517C433.35 116.517 434.869 116.156 436.244 115.463C436.78 115.282 437.245 114.938 437.575 114.479C437.905 114.019 438.082 113.468 438.082 112.903C438.082 112.338 437.905 111.786 437.575 111.327C437.245 110.868 436.78 110.524 436.244 110.343C434.873 109.65 433.358 109.289 431.821 109.289C430.285 109.289 428.77 109.65 427.399 110.343C424.959 111.759 424.937 114.047 427.377 115.463Z" fill="#83C9FF"/>
<path fill-rule="evenodd" clip-rule="evenodd" d="M509.227 65.5944C497.07 71.5857 495.916 107.381 486.613 116.313C481.341 121.367 460.23 117.337 453.018 117.468C450.186 123.807 454.021 131.498 454.021 131.498C494.26 133.459 499.096 134.7 509.314 115.158C517.31 99.886 525.523 61.5422 509.227 65.5944Z" fill="#FBD15B"/>
<path fill-rule="evenodd" clip-rule="evenodd" d="M467.527 48.2514C459.75 52.3254 456.046 84.9176 446.743 93.0875C441.471 97.7062 439.14 101.933 428.399 107.292C425.567 113.087 433.236 116.704 433.236 116.704C454.674 108.599 459.554 101.606 466.721 90.7782C475.588 77.3578 483.802 44.5259 467.527 48.2514Z" fill="#FBD15B"/>
<path fill-rule="evenodd" clip-rule="evenodd" d="M432.801 115.528C431.535 117.341 430.122 119.046 428.574 120.626C426.723 122.805 423.76 126.378 422.845 125.463C421.93 124.548 423.629 120.931 423.629 120.931C421.282 123.092 419.098 125.422 417.093 127.903C416.113 129.667 416.679 124.591 418.095 122.282C414.566 127.641 413.738 128.818 413.433 127.489C413.128 126.16 416.069 118.774 415.612 119.602C411.538 125.724 409.991 126.574 410.405 123.763C411.614 120.113 413.996 116.965 417.18 114.809C410.122 119.384 409.642 118.883 411.407 116.857C416.055 112.376 422.005 109.484 428.4 108.6C434.13 113.851 432.801 115.528 432.801 115.528Z" fill="#FFC8AF"/>
<path fill-rule="evenodd" clip-rule="evenodd" d="M428.095 126.771C430.383 123.242 433.694 119.189 437.899 118.057C440.902 117.438 444.02 117.703 446.875 118.819C449.549 119.401 452.189 120.128 454.783 120.998C455.807 123.375 456.361 125.927 456.417 128.514C455.908 128.685 455.383 128.802 454.849 128.863C452.415 129.39 449.947 129.747 447.463 129.93C445.544 130.126 443.609 130.126 441.69 129.93C442.3 130.104 443.041 130.409 443.128 131.041C443.138 131.311 443.051 131.576 442.884 131.788C442.716 131.999 442.478 132.144 442.213 132.196C438.618 133.133 435.459 128.754 433.237 126.727C433.477 126.836 425.132 131.368 428.095 126.771Z" fill="#FFC8AF"/>
<path fill-rule="evenodd" clip-rule="evenodd" d="M465.895 12.4796C465.696 12.8242 465.535 13.1895 465.415 13.5689C464.762 15.5078 465.219 17.9261 464.74 19.8433C463.999 23.0677 461.712 25.5949 460.644 28.7103C456.701 40.1045 468.03 46.4879 477.855 45.66C479.63 45.602 481.352 45.043 482.823 44.0478C487.594 40.366 482.212 34.5708 479.968 31.1722C477.963 28.718 476.573 25.8196 475.916 22.7191C475.742 19.9958 477.202 17.6211 476.657 14.7018C476.476 13.5189 475.938 12.4197 475.114 11.5518C474.29 10.684 473.221 10.0891 472.049 9.84715C470.877 9.60518 469.659 9.72772 468.559 10.1983C467.459 10.6689 466.529 11.465 465.895 12.4796V12.4796Z" fill="#56548C"/>
<path fill-rule="evenodd" clip-rule="evenodd" d="M495.198 35.5508C495.198 35.5508 491.974 46.7707 499.359 51.4548C499.599 54.178 491.843 65.7683 484.109 63.7858C479.555 62.6529 477.246 56.1606 477.246 56.1606C477.951 51.9254 478.874 47.7296 480.013 43.5899L495.198 35.5508Z" fill="#FFC8AF"/>
<path fill-rule="evenodd" clip-rule="evenodd" d="M468.968 12.7849C467.825 16.8857 467.398 21.153 467.705 25.3991C468.467 30.911 468.968 41.9131 473.848 45.4207C478.729 48.9283 485.744 44.8543 490.384 40.9109C493.3 38.4345 495.667 35.3764 497.333 31.9324C498.998 28.4885 499.926 24.7346 500.057 20.9111C500.188 12.1966 496.746 1.30351 484.066 1.89173C471.387 2.47996 468.968 12.7849 468.968 12.7849Z" fill="#FFC8AF"/>
<path fill-rule="evenodd" clip-rule="evenodd" d="M477.833 7.40356C474.544 11.4122 476.112 16.3359 480.164 19.2989C482.999 20.9164 485.433 23.1501 487.289 25.8347C488.99 28.7886 489.968 32.1034 490.142 35.5079C490.273 38.3183 490.295 41.0851 490.448 43.8738C490.448 45.1592 490.578 46.9456 491.973 47.2942C494.189 47.3688 496.381 46.8096 498.291 45.682C500.603 44.3033 502.66 42.5342 504.369 40.4533C507.815 36.3824 509.828 31.2922 510.099 25.9655C510.447 16.1616 504.848 9.82184 497.724 4.17919C490.6 -1.46345 483.672 0.279452 477.833 7.40356Z" fill="#56548C"/>
<path fill-rule="evenodd" clip-rule="evenodd" d="M473.498 2.47972C475.982 0.802174 486.025 -2.31326 486.069 2.8283C486.112 7.96985 478.596 13.0896 474.609 15.3554C472.826 16.2542 471.101 17.2657 469.446 18.3837C467.376 19.9959 467.267 23.0677 465.372 24.4621C462.583 21.7823 463.302 15.1811 464.413 11.8914C465.982 7.46877 469.838 4.98514 473.498 2.47972Z" fill="#56548C"/>
<path fill-rule="evenodd" clip-rule="evenodd" d="M479.163 46.7054C484.348 46.2697 490.056 41.2371 490.056 41.2371C490.056 41.2371 488.858 47.2719 478.553 49.4287L479.163 46.7054Z" fill="#F4AE92"/>
<path d="M626.655 349.383C621.644 357.161 622.799 362.694 624.215 363.326C653.931 376.551 672.406 372.52 676.938 370.995C672.014 364.132 667.352 357.531 661.796 350.058C647.265 352.738 626.655 349.383 626.655 349.383Z" fill="#56548C"/>
<path d="M540.47 137.991L540.361 170.736L480.906 205.311L480.993 172.544L540.47 137.991Z" fill="#A3D8EF"/>
<path d="M272.912 172.566L272.825 205.311L212.956 170.758L213.043 137.991L272.912 172.566Z" fill="#CEE9F4"/>
<path d="M427.398 218.077V185.398C427.398 180.757 430.448 176.138 436.505 172.609C448.727 165.528 468.596 165.528 480.884 172.609V205.288C468.596 198.186 448.705 198.186 436.505 205.288C430.448 208.84 427.42 213.458 427.398 218.077Z" fill="#6CC6E5"/>
<path d="M326.571 185.507L326.462 218.186C326.462 213.502 323.39 208.818 317.203 205.245C304.894 198.143 285.046 198.143 272.824 205.245V172.566C285.046 165.464 304.915 165.442 317.203 172.566C323.412 176.117 326.571 180.823 326.571 185.507Z" fill="#A3D8EF"/>
<path d="M377.291 232.826L377.182 265.571L317.357 231.018L317.445 198.273L377.291 232.826Z" fill="#CEE9F4"/>
<path d="M436.744 198.252L436.657 231.018L377.181 265.571L377.29 232.827L436.744 198.252Z" fill="#A3D8EF"/>
<path d="M540.468 137.99L480.991 172.543C468.704 165.463 448.835 165.463 436.613 172.543C424.391 179.624 424.478 191.171 436.743 198.251L377.289 232.826L317.442 198.273C329.664 191.171 329.599 179.646 317.289 172.543C304.98 165.441 285.133 165.463 272.911 172.543L213.042 137.99L376.221 43.1765L540.468 137.99Z" fill="#BEE1F4"/>
<path d="M277.076 214.264L276.967 246.944C276.967 251.584 273.917 256.203 267.86 259.732V227.053C274.026 223.502 277.054 218.97 277.076 214.264Z" fill="#D86868"/>
<path d="M327.792 261.583L327.683 294.328L268.25 328.881L268.337 296.137L327.792 261.583Z" fill="#D86868"/>
<path d="M214.743 341.649V308.969C214.743 304.351 217.793 299.732 223.872 296.203C236.072 289.1 255.963 289.1 268.25 296.203V328.882C255.963 321.802 236.072 321.802 223.85 328.882C217.793 332.433 214.743 337.03 214.743 341.649Z" fill="#D34C4C"/>
<path d="M224.09 321.846L224.003 354.591L164.526 389.166L164.635 356.399L224.09 321.846Z" fill="#D86868"/>
<path d="M164.635 356.397L164.526 389.164L0.300781 294.328L0.387912 261.583L164.635 356.397Z" fill="#F49898"/>
<path d="M267.792 201.324C280.101 208.426 280.166 219.929 267.944 227.032L327.769 261.585L268.314 296.138C256.027 289.036 236.136 289.036 223.936 296.138C211.736 303.24 211.779 314.743 224.067 321.846L164.59 356.399L0.365234 261.585L163.544 166.684L223.413 201.324C235.635 194.222 255.504 194.222 267.792 201.324Z" fill="#EC827D"/>
<path d="M477.224 246.834V214.155C477.224 218.839 480.296 223.523 486.483 227.096V259.775C480.274 256.203 477.202 251.518 477.224 246.834Z" fill="#2865D8"/>
<path d="M486.962 296.136L486.875 328.903L427.006 294.328L427.093 261.583L486.962 296.136Z" fill="#2865D8"/>
<path d="M540.622 309.077L540.513 341.756C540.513 337.072 537.441 332.366 531.275 328.815C518.966 321.713 499.097 321.713 486.875 328.815V296.136C499.097 289.034 518.966 289.034 531.275 296.136C537.55 299.709 540.622 304.393 540.622 309.077Z" fill="#3868BB"/>
<path d="M591.341 356.421L591.254 389.166L531.407 354.613L531.494 321.846L591.341 356.421Z" fill="#2865D8"/>
<path d="M754.519 261.583L754.432 294.328L591.253 389.163L591.34 356.419L754.519 261.583Z" fill="#3868BB"/>
<path d="M754.52 261.584L591.384 356.42L531.538 321.845C543.76 314.743 543.694 303.24 531.407 296.137C519.119 289.035 499.228 289.035 487.006 296.137L427.138 261.584L486.614 227.031C474.327 219.929 474.261 208.404 486.484 201.324C498.706 194.243 518.553 194.221 530.862 201.324L590.273 166.683L754.52 261.584Z" fill="#23489D"/>
<path d="M491.167 337.834L491.058 370.514C491.058 375.133 488.008 379.751 481.951 383.281V350.601C488.073 347.094 491.167 342.475 491.167 337.834Z" fill="#EFBC3F"/>
<path d="M264.589 370.427V337.747C264.589 342.431 267.661 347.115 273.848 350.688V383.368C267.639 379.795 264.589 375.111 264.589 370.427Z" fill="#FFDC85"/>
<path fill-rule="evenodd" clip-rule="evenodd" d="M320.123 491.449C320.123 491.449 321.735 492.016 325.504 493.628C331.004 495.304 336.806 495.751 342.498 494.935C347.552 494.129 354.545 492.996 353.216 491.144C351.887 489.293 326.31 482.909 325.243 483.41C324.175 483.911 320.123 491.449 320.123 491.449Z" fill="#F2AD91"/>
<path d="M378.684 479.99L378.597 512.756L214.351 417.921L214.438 385.154L378.684 479.99Z" fill="#FFDC85"/>
<path d="M541.842 385.177L541.755 417.922L378.598 512.757L378.685 479.991L541.842 385.177Z" fill="#EFBC3F"/>
<path d="M481.864 324.894C494.152 331.996 494.217 343.521 481.995 350.623L541.842 385.176L378.684 479.99L214.481 385.155L273.958 350.602C261.649 343.499 261.583 331.996 273.805 324.916C286.028 317.835 305.897 317.791 318.206 324.916L377.639 290.363L437.507 324.937C449.773 317.813 469.555 317.813 481.864 324.894Z" fill="#FBD15B"/>
<path d="M379.034 378.205V381.604C379.034 384.305 377.247 386.985 373.718 389.033C369.714 391.064 365.288 392.122 360.799 392.122C356.309 392.122 351.883 391.064 347.879 389.033C344.285 386.854 342.476 384.218 342.498 381.495V378.009C342.498 380.732 344.285 383.477 347.901 385.547C351.903 387.583 356.33 388.644 360.82 388.644C365.311 388.644 369.737 387.583 373.74 385.547C377.269 383.565 379.034 380.885 379.034 378.205Z" fill="#A5B7C6"/>
<path d="M373.633 370.645C380.801 374.784 380.844 381.538 373.742 385.634C369.74 387.669 365.313 388.731 360.823 388.731C356.333 388.731 351.906 387.669 347.903 385.634C340.736 381.516 340.714 374.741 347.903 370.667C351.89 368.647 356.296 367.593 360.766 367.589C365.235 367.585 369.643 368.632 373.633 370.645Z" fill="#B6C7D3"/>
<path d="M403.849 267.401C403.176 267.084 402.429 266.955 401.689 267.028C400.949 267.101 400.242 267.373 399.644 267.815L308.512 320.429C306.789 321.549 305.354 323.061 304.324 324.84C303.295 326.619 302.699 328.616 302.586 330.668L302.738 398.794C302.665 399.522 302.785 400.256 303.088 400.922C303.39 401.587 303.863 402.161 304.46 402.585L310.364 406.027C309.766 405.6 309.291 405.022 308.989 404.353C308.687 403.683 308.567 402.945 308.643 402.215L308.49 334.111C308.6 332.054 309.194 330.053 310.223 328.27C311.253 326.487 312.69 324.972 314.416 323.849L405.548 271.257C406.146 270.815 406.853 270.543 407.593 270.47C408.333 270.397 409.08 270.526 409.753 270.843L403.849 267.401Z" fill="#B6C7D3"/>
<path d="M405.547 271.258C408.815 269.363 411.472 270.888 411.472 274.657L411.625 342.782C411.511 344.829 410.917 346.82 409.892 348.595C408.866 350.37 407.437 351.879 405.721 353L314.698 405.592C311.408 407.488 308.75 405.984 308.75 402.215L308.598 334.111C308.707 332.055 309.301 330.054 310.331 328.271C311.361 326.488 312.797 324.973 314.524 323.85L405.547 271.258Z" fill="#A5B7C6"/>
<path d="M407.334 288.14L407.312 275.047L404.763 276.507L399.251 279.687L325.897 322.04L312.673 329.687V334.066V334.088L312.738 366.44L312.804 393.433L370.864 359.904L379.905 354.676L407.443 338.793L407.334 288.14Z" fill="#102B7C"/>
<path d="M325.896 322.04L312.78 329.621V333.761L407.311 279.186L407.289 275.047L325.896 322.04Z" fill="#23489D"/>
<path d="M323.804 338.968C323.752 340.004 323.454 341.013 322.935 341.91C322.416 342.808 321.691 343.57 320.82 344.132C319.164 345.09 317.835 344.328 317.835 342.411C317.887 341.375 318.185 340.367 318.704 339.469C319.223 338.571 319.948 337.809 320.82 337.247C322.475 336.289 323.804 337.073 323.804 338.968Z" fill="#23489D"/>
<path d="M323.804 349.47C323.756 350.51 323.459 351.523 322.94 352.424C322.421 353.326 321.694 354.091 320.82 354.655C319.164 355.592 317.835 354.83 317.835 352.913C317.887 351.877 318.185 350.868 318.704 349.971C319.223 349.073 319.948 348.311 320.82 347.749C322.475 346.791 323.804 347.51 323.804 349.47Z" fill="#EC827D"/>
<path d="M323.804 359.862C323.752 360.898 323.454 361.907 322.935 362.804C322.416 363.702 321.691 364.464 320.82 365.026C319.164 365.984 317.835 365.222 317.835 363.305C317.887 362.269 318.185 361.261 318.704 360.363C319.223 359.465 319.948 358.703 320.82 358.141C322.475 357.183 323.804 357.967 323.804 359.862Z" fill="#FBD15B"/>
<path d="M323.412 394.502C323.365 395.248 323.144 395.971 322.765 396.615C322.387 397.258 321.862 397.803 321.233 398.206C320.035 398.881 319.055 398.337 319.055 396.964C319.096 396.218 319.315 395.492 319.694 394.848C320.073 394.203 320.601 393.659 321.233 393.261C322.453 392.563 323.412 393.13 323.412 394.502Z" fill="#EC827D"/>
<path d="M444.543 397.139L415.371 380.276L454.216 357.858L483.41 374.699L444.543 397.139Z" fill="#56548C"/>
<path d="M444.544 398.424V397.139L483.411 374.699V375.984L444.544 398.424Z" fill="#112B46"/>
<path d="M444.543 397.138V398.424L415.371 381.583V380.276L444.543 397.138Z" fill="#112B46"/>
<path d="M340.471 417.572V420.078L368.967 436.635V434.13L340.471 417.572Z" fill="#CCD9E2"/>
<path d="M368.968 434.131V436.636L432.039 400.231L432.017 397.726L368.968 434.131Z" fill="#A5B7C6"/>
<path d="M340.471 417.574L368.967 434.131L432.017 397.726L403.542 381.147L340.471 417.574Z" fill="#B6C7D3"/>
<path d="M399.687 385.33V386.572L403.63 388.881V387.617L399.687 385.33Z" fill="#CCD9E2"/>
<path d="M403.631 387.617V388.881L407.509 386.637V385.373L403.631 387.617Z" fill="#A5B7C6"/>
<path d="M399.688 385.33L403.632 387.618L407.51 385.374L403.566 383.086L399.688 385.33Z" fill="#B6C7D3"/>
<path d="M394.696 388.205V389.469L398.64 391.756V390.493L394.696 388.205Z" fill="#CCD9E2"/>
<path d="M398.641 390.493V391.756L402.519 389.512V388.249L398.641 390.493Z" fill="#A5B7C6"/>
<path d="M394.697 388.205L398.641 390.493L402.519 388.249L398.575 385.961L394.697 388.205Z" fill="#B6C7D3"/>
<path d="M389.71 391.081V392.345L393.653 394.632V393.369L389.71 391.081Z" fill="#CCD9E2"/>
<path d="M393.655 393.368V394.632L397.555 392.388V391.125L393.655 393.368Z" fill="#A5B7C6"/>
<path d="M389.713 391.081L393.656 393.368L397.556 391.124L393.613 388.837L389.713 391.081Z" fill="#B6C7D3"/>
<path d="M384.741 393.958V395.221L388.685 397.509V396.245L384.741 393.958Z" fill="#CCD9E2"/>
<path d="M388.687 396.244V397.508L392.564 395.264V394L388.687 396.244Z" fill="#A5B7C6"/>
<path d="M384.741 393.958L388.685 396.245L392.562 394.001L388.619 391.714L384.741 393.958Z" fill="#B6C7D3"/>
<path d="M379.751 396.832V398.095L383.694 400.383V399.119L379.751 396.832Z" fill="#CCD9E2"/>
<path d="M383.695 399.119V400.383L387.573 398.139V396.875L383.695 399.119Z" fill="#A5B7C6"/>
<path d="M379.752 396.833L383.695 399.12L387.573 396.876L383.63 394.589L379.752 396.833Z" fill="#B6C7D3"/>
<path d="M374.763 399.709V400.972L378.706 403.26V401.996L374.763 399.709Z" fill="#CCD9E2"/>
<path d="M378.707 401.996V403.26L382.607 401.016V399.752L378.707 401.996Z" fill="#A5B7C6"/>
<path d="M374.763 399.709L378.706 401.996L382.606 399.752L378.662 397.465L374.763 399.709Z" fill="#B6C7D3"/>
<path d="M369.794 402.584V403.848L373.737 406.135L373.715 404.872L369.794 402.584Z" fill="#CCD9E2"/>
<path d="M373.716 404.872L373.738 406.135L377.616 403.891V402.628L373.716 404.872Z" fill="#A5B7C6"/>
<path d="M369.795 402.585L373.716 404.872L377.616 402.628L373.673 400.341L369.795 402.585Z" fill="#B6C7D3"/>
<path d="M364.806 405.46V406.724L368.749 409.011L368.727 407.769L364.806 405.46Z" fill="#CCD9E2"/>
<path d="M368.728 407.768L368.749 409.01L372.649 406.766L372.627 405.503L368.728 407.768Z" fill="#A5B7C6"/>
<path d="M364.809 405.46L368.73 407.77L372.63 405.504L368.708 403.216L364.809 405.46Z" fill="#B6C7D3"/>
<path d="M359.817 408.335V409.599L363.761 411.887V410.623L359.817 408.335Z" fill="#CCD9E2"/>
<path d="M363.762 410.623V411.887L367.661 409.643L367.64 408.379L363.762 410.623Z" fill="#A5B7C6"/>
<path d="M359.818 408.337L363.762 410.624L367.64 408.38L363.696 406.093L359.818 408.337Z" fill="#B6C7D3"/>
<path d="M354.827 411.211L354.849 412.475L358.792 414.763L358.77 413.499L354.827 411.211Z" fill="#CCD9E2"/>
<path d="M358.771 413.498L358.792 414.762L362.67 412.518V411.254L358.771 413.498Z" fill="#A5B7C6"/>
<path d="M354.827 411.212L358.77 413.499L362.67 411.255L358.727 408.968L354.827 411.212Z" fill="#B6C7D3"/>
<path d="M344.873 416.963V418.227L348.816 420.515V419.273L344.873 416.963Z" fill="#CCD9E2"/>
<path d="M348.816 419.273V420.515L357.683 415.395V414.131L348.816 419.273Z" fill="#A5B7C6"/>
<path d="M344.875 416.963L348.818 419.272L357.685 414.131L353.742 411.843L344.875 416.963Z" fill="#B6C7D3"/>
<path d="M399.707 391.125L399.729 392.389L403.65 394.676V393.413L399.707 391.125Z" fill="#CCD9E2"/>
<path d="M403.651 393.413V394.676L412.54 389.535V388.293L403.651 393.413Z" fill="#A5B7C6"/>
<path d="M399.709 391.125L403.652 393.413L412.541 388.293L408.598 386.006L399.709 391.125Z" fill="#B6C7D3"/>
<path d="M394.739 394V395.264L398.683 397.551V396.288L394.739 394Z" fill="#CCD9E2"/>
<path d="M398.684 396.287V397.551L402.562 395.307V394.043L398.684 396.287Z" fill="#A5B7C6"/>
<path d="M394.741 394.002L398.685 396.289L402.562 394.045L398.619 391.758L394.741 394.002Z" fill="#B6C7D3"/>
<path d="M389.754 396.876V398.14L393.697 400.427V399.164L389.754 396.876Z" fill="#CCD9E2"/>
<path d="M393.694 399.163V400.427L397.594 398.183V396.919L393.694 399.163Z" fill="#A5B7C6"/>
<path d="M389.752 396.877L393.695 399.164L397.595 396.92L393.652 394.633L389.752 396.877Z" fill="#B6C7D3"/>
<path d="M384.765 399.751V401.014L388.708 403.302V402.038L384.765 399.751Z" fill="#CCD9E2"/>
<path d="M388.71 402.038V403.302L392.61 401.058V399.794L388.71 402.038Z" fill="#A5B7C6"/>
<path d="M384.765 399.752L388.708 402.04L392.608 399.796L388.664 397.508L384.765 399.752Z" fill="#B6C7D3"/>
<path d="M379.794 402.628V403.892L383.737 406.18V404.916L379.794 402.628Z" fill="#CCD9E2"/>
<path d="M383.738 404.916V406.179L387.616 403.935V402.672L383.738 404.916Z" fill="#A5B7C6"/>
<path d="M379.796 402.629L383.739 404.916L387.617 402.672L383.674 400.385L379.796 402.629Z" fill="#B6C7D3"/>
<path d="M374.806 405.502V406.766L378.749 409.053V407.79L374.806 405.502Z" fill="#CCD9E2"/>
<path d="M378.75 407.79V409.054L382.65 406.81V405.546L378.75 407.79Z" fill="#A5B7C6"/>
<path d="M374.806 405.504L378.749 407.791L382.649 405.547L378.705 403.26L374.806 405.504Z" fill="#B6C7D3"/>
<path d="M369.817 408.379V409.643L373.761 411.93V410.688L369.817 408.379Z" fill="#CCD9E2"/>
<path d="M373.762 410.687V411.929L377.661 409.685V408.422L373.762 410.687Z" fill="#A5B7C6"/>
<path d="M369.817 408.379L373.761 410.689L377.66 408.423L373.717 406.135L369.817 408.379Z" fill="#B6C7D3"/>
<path d="M364.848 411.254V412.518L368.791 414.806L368.769 413.542L364.848 411.254Z" fill="#CCD9E2"/>
<path d="M368.77 413.543L368.791 414.806L372.669 412.562V411.299L368.77 413.543Z" fill="#A5B7C6"/>
<path d="M364.848 411.255L368.769 413.543L372.669 411.299L368.726 409.011L364.848 411.255Z" fill="#B6C7D3"/>
<path d="M359.86 414.131V415.395L363.804 417.683V416.419L359.86 414.131Z" fill="#CCD9E2"/>
<path d="M363.806 416.419V417.682L367.705 415.438L367.684 414.175L363.806 416.419Z" fill="#A5B7C6"/>
<path d="M359.86 414.131L363.804 416.419L367.682 414.175L363.738 411.887L359.86 414.131Z" fill="#B6C7D3"/>
<path d="M354.871 417.029V418.271L358.814 420.558V419.316L354.871 417.029Z" fill="#CCD9E2"/>
<path d="M358.815 419.317V420.558L362.715 418.314V417.051L358.815 419.317Z" fill="#A5B7C6"/>
<path d="M354.873 417.029L358.816 419.317L362.716 417.051L358.773 414.763L354.873 417.029Z" fill="#B6C7D3"/>
<path d="M349.881 419.882L349.903 421.146L353.824 423.433V422.191L349.881 419.882Z" fill="#CCD9E2"/>
<path d="M353.824 422.192V423.434L357.724 421.19V419.948L353.824 422.192Z" fill="#A5B7C6"/>
<path d="M349.883 419.883L353.826 422.192L357.726 419.948L353.783 417.639L349.883 419.883Z" fill="#B6C7D3"/>
<path d="M404.737 394.043V395.307L408.681 397.594V396.331L404.737 394.043Z" fill="#CCD9E2"/>
<path d="M408.682 396.331V397.595L417.57 392.475V391.212L408.682 396.331Z" fill="#A5B7C6"/>
<path d="M404.739 394.044L408.683 396.331L417.571 391.212L413.628 388.924L404.739 394.044Z" fill="#B6C7D3"/>
<path d="M399.771 396.92V398.184L403.715 400.471V399.207L399.771 396.92Z" fill="#CCD9E2"/>
<path d="M403.715 399.207V400.471L407.593 398.227V396.963L403.715 399.207Z" fill="#A5B7C6"/>
<path d="M399.771 396.92L403.715 399.208L407.593 396.964L403.649 394.677L399.771 396.92Z" fill="#B6C7D3"/>
<path d="M394.784 399.794V401.057L398.727 403.345V402.081L394.784 399.794Z" fill="#CCD9E2"/>
<path d="M398.728 402.082V403.346L402.627 401.102L402.605 399.838L398.728 402.082Z" fill="#A5B7C6"/>
<path d="M394.787 399.795L398.73 402.082L402.608 399.838L398.687 397.551L394.787 399.795Z" fill="#B6C7D3"/>
<path d="M389.796 402.672V403.935L393.739 406.223V404.959L389.796 402.672Z" fill="#CCD9E2"/>
<path d="M393.74 404.96V406.223L397.64 403.979L397.618 402.716L393.74 404.96Z" fill="#A5B7C6"/>
<path d="M389.797 402.672L393.74 404.96L397.618 402.716L393.675 400.428L389.797 402.672Z" fill="#B6C7D3"/>
<path d="M384.808 405.547L384.829 406.81L388.773 409.098L388.751 407.834L384.808 405.547Z" fill="#CCD9E2"/>
<path d="M388.752 407.835L388.774 409.098L392.652 406.854V405.591L388.752 407.835Z" fill="#A5B7C6"/>
<path d="M384.811 405.548L388.754 407.835L392.654 405.591L388.71 403.304L384.811 405.548Z" fill="#B6C7D3"/>
<path d="M379.837 408.423V409.687L383.78 411.974V410.711L379.837 408.423Z" fill="#CCD9E2"/>
<path d="M383.781 410.711V411.974L387.681 409.73L387.659 408.467L383.781 410.711Z" fill="#A5B7C6"/>
<path d="M379.838 408.423L383.781 410.711L387.659 408.467L383.716 406.179L379.838 408.423Z" fill="#B6C7D3"/>
<path d="M374.849 411.298V412.561L378.792 414.849V413.607L374.849 411.298Z" fill="#CCD9E2"/>
<path d="M378.793 413.607V414.849L382.693 412.605V411.341L378.793 413.607Z" fill="#A5B7C6"/>
<path d="M374.853 411.299L378.796 413.608L382.696 411.342L378.752 409.055L374.853 411.299Z" fill="#B6C7D3"/>
<path d="M369.859 414.175V415.438L373.803 417.726V416.484L369.859 414.175Z" fill="#CCD9E2"/>
<path d="M373.803 416.484V417.726L377.702 415.482V414.24L373.803 416.484Z" fill="#A5B7C6"/>
<path d="M369.862 414.175L373.806 416.484L377.705 414.24L373.762 411.931L369.862 414.175Z" fill="#B6C7D3"/>
<path d="M364.892 417.051V418.314L368.835 420.602V419.338L364.892 417.051Z" fill="#CCD9E2"/>
<path d="M368.835 419.339V420.602L372.713 418.358V417.095L368.835 419.339Z" fill="#A5B7C6"/>
<path d="M364.895 417.051L368.838 419.339L372.716 417.095L368.772 414.807L364.895 417.051Z" fill="#B6C7D3"/>
<path d="M354.914 422.803V424.066L358.857 426.354V425.112L354.914 422.803Z" fill="#CCD9E2"/>
<path d="M358.858 425.111V426.352L367.747 421.233V419.969L358.858 425.111Z" fill="#A5B7C6"/>
<path d="M354.918 422.802L358.861 425.111L367.75 419.969L363.807 417.682L354.918 422.802Z" fill="#B6C7D3"/>
<path d="M404.807 399.84V401.103L408.75 403.391V402.149L404.807 399.84Z" fill="#CCD9E2"/>
<path d="M408.749 402.149V403.391L422.605 395.395V394.132L408.749 402.149Z" fill="#A5B7C6"/>
<path d="M404.81 399.84L408.753 402.149L422.609 394.132L418.666 391.844L404.81 399.84Z" fill="#B6C7D3"/>
<path d="M399.817 402.716V403.98L403.761 406.267V405.026L399.817 402.716Z" fill="#CCD9E2"/>
<path d="M403.763 405.027V406.269L407.662 404.025V402.783L403.763 405.027Z" fill="#A5B7C6"/>
<path d="M399.817 402.716L403.761 405.025L407.66 402.781L403.717 400.472L399.817 402.716Z" fill="#B6C7D3"/>
<path d="M394.829 405.612V406.854L398.772 409.142V407.9L394.829 405.612Z" fill="#CCD9E2"/>
<path d="M398.773 407.9V409.142L402.673 406.898V405.656L398.773 407.9Z" fill="#A5B7C6"/>
<path d="M394.829 405.613L398.772 407.9L402.672 405.657L398.729 403.347L394.829 405.613Z" fill="#B6C7D3"/>
<path d="M389.861 408.49V409.732L393.805 412.019L393.783 410.778L389.861 408.49Z" fill="#CCD9E2"/>
<path d="M393.784 410.776L393.806 412.018L397.684 409.774V408.532L393.784 410.776Z" fill="#A5B7C6"/>
<path d="M389.862 408.489L393.784 410.776L397.684 408.532L393.74 406.245L389.862 408.489Z" fill="#B6C7D3"/>
<path d="M384.872 411.364V412.605L388.815 414.893V413.651L384.872 411.364Z" fill="#CCD9E2"/>
<path d="M388.816 413.652V414.894L392.716 412.65L392.694 411.408L388.816 413.652Z" fill="#A5B7C6"/>
<path d="M384.874 411.364L388.817 413.652L392.695 411.408L388.752 409.098L384.874 411.364Z" fill="#B6C7D3"/>
<path d="M379.882 414.241V415.483L383.825 417.771V416.529L379.882 414.241Z" fill="#CCD9E2"/>
<path d="M383.826 416.528V417.77L387.726 415.526V414.284L383.826 416.528Z" fill="#A5B7C6"/>
<path d="M379.884 414.24L383.827 416.528L387.727 414.284L383.783 411.975L379.884 414.24Z" fill="#B6C7D3"/>
<path d="M374.894 417.116V418.358L378.837 420.645V419.403L374.894 417.116Z" fill="#CCD9E2"/>
<path d="M378.838 419.403V420.645L382.738 418.401V417.159L378.838 419.403Z" fill="#A5B7C6"/>
<path d="M374.895 417.117L378.838 419.404L382.738 417.16L378.794 414.873L374.895 417.117Z" fill="#B6C7D3"/>
<path d="M369.926 419.991V421.233L373.869 423.52V422.278L369.926 419.991Z" fill="#CCD9E2"/>
<path d="M373.869 422.278V423.52L377.747 421.276V420.034L373.869 422.278Z" fill="#A5B7C6"/>
<path d="M369.927 419.991L373.87 422.279L377.748 420.035L373.805 417.747L369.927 419.991Z" fill="#B6C7D3"/>
<path d="M359.946 425.743V426.985L363.89 429.294V428.03L359.946 425.743Z" fill="#CCD9E2"/>
<path d="M363.89 428.031V429.295L372.778 424.153V422.911L363.89 428.031Z" fill="#A5B7C6"/>
<path d="M359.948 425.744L363.892 428.032L372.78 422.912L368.837 420.624L359.948 425.744Z" fill="#B6C7D3"/>
<path d="M419.795 397.006V398.269L423.738 400.557V399.293L419.795 397.006Z" fill="#CCD9E2"/>
<path d="M423.739 399.294V400.557L427.617 398.313V397.05L423.739 399.294Z" fill="#A5B7C6"/>
<path d="M419.798 397.007L423.741 399.295L427.619 397.051L423.676 394.763L419.798 397.007Z" fill="#B6C7D3"/>
<path d="M414.807 399.882V401.146L418.75 403.433V402.192L414.807 399.882Z" fill="#CCD9E2"/>
<path d="M418.75 402.193V403.435L422.65 401.191L422.628 399.949L418.75 402.193Z" fill="#A5B7C6"/>
<path d="M414.808 399.882L418.751 402.192L422.629 399.948L418.686 397.638L414.808 399.882Z" fill="#B6C7D3"/>
<path d="M409.818 402.782L409.84 404.024L413.762 406.312V405.07L409.818 402.782Z" fill="#CCD9E2"/>
<path d="M413.762 405.068V406.31L417.661 404.066V402.802L413.762 405.068Z" fill="#A5B7C6"/>
<path d="M409.818 402.781L413.762 405.069L417.661 402.803L413.718 400.515L409.818 402.781Z" fill="#B6C7D3"/>
<path d="M384.915 417.159V418.401L388.858 420.689V419.447L384.915 417.159Z" fill="#CCD9E2"/>
<path d="M388.859 419.448V420.69L412.672 406.943V405.701L388.859 419.448Z" fill="#A5B7C6"/>
<path d="M384.915 417.16L388.858 419.447L412.671 405.7L408.727 403.391L384.915 417.16Z" fill="#B6C7D3"/>
<path d="M379.924 420.034V421.276L383.867 423.564V422.322L379.924 420.034Z" fill="#CCD9E2"/>
<path d="M383.868 422.322V423.563L387.768 421.319V420.078L383.868 422.322Z" fill="#A5B7C6"/>
<path d="M379.924 420.035L383.867 422.322L387.767 420.078L383.824 417.791L379.924 420.035Z" fill="#B6C7D3"/>
<path d="M374.938 422.911L374.96 424.153L378.904 426.441L378.882 425.199L374.938 422.911Z" fill="#CCD9E2"/>
<path d="M378.884 425.199L378.906 426.441L382.784 424.197V422.955L378.884 425.199Z" fill="#A5B7C6"/>
<path d="M374.938 422.912L378.882 425.199L382.782 422.955L378.838 420.668L374.938 422.912Z" fill="#B6C7D3"/>
<path d="M364.982 428.663V429.905L368.926 432.215V430.951L364.982 428.663Z" fill="#CCD9E2"/>
<path d="M368.927 430.949V432.213L377.794 427.071V425.829L368.927 430.949Z" fill="#A5B7C6"/>
<path d="M364.983 428.663L368.927 430.95L377.794 425.83L373.85 423.543L364.983 428.663Z" fill="#B6C7D3"/>
<path d="M380.188 316.203L380.254 335.985L397.487 326.05L397.421 306.246L380.188 316.203Z" fill="#23489D"/>
<path d="M363.738 333.129L363.76 333.914L376.244 326.702V325.918L363.738 333.129Z" fill="#B6C7D3"/>
<path d="M363.738 330.645V331.451L376.244 324.218V323.434L363.738 330.645Z" fill="#B6C7D3"/>
<path d="M363.738 328.183V328.967L376.222 321.756V320.95L363.738 328.183Z" fill="#B6C7D3"/>
<path d="M363.717 325.7L363.739 326.485L376.222 319.273V318.489L363.717 325.7Z" fill="#B6C7D3"/>
<path d="M363.761 338.097V338.882L376.266 331.671L376.244 330.886L363.761 338.097Z" fill="#B6C7D3"/>
<path d="M363.761 335.613V336.398L376.244 329.186V328.402L363.761 335.613Z" fill="#B6C7D3"/>
<path d="M366.942 338.729V339.513L376.267 334.132V333.348L366.942 338.729Z" fill="#B6C7D3"/>
<path d="M395.003 299.58C394.826 299.689 394.678 299.839 394.572 300.017C394.466 300.196 394.404 300.397 394.393 300.604C394.393 300.974 394.676 301.127 395.003 300.953C395.176 300.837 395.319 300.682 395.421 300.5C395.524 300.318 395.582 300.115 395.591 299.907C395.591 299.58 395.308 299.428 395.003 299.58Z" fill="#FBD15B"/>
<path d="M400.428 295.396C401.06 295.026 401.561 295.396 401.561 296.05V301.431C401.561 300.778 401.082 300.494 400.515 300.843L360.864 323.74C360.552 323.93 360.293 324.195 360.11 324.511C359.928 324.827 359.827 325.184 359.818 325.548V320.145C359.842 319.753 359.956 319.371 360.153 319.031C360.35 318.691 360.623 318.401 360.951 318.185L400.428 295.396ZM397.487 299.579C397.66 299.467 397.805 299.316 397.911 299.138C398.017 298.961 398.08 298.761 398.097 298.555C398.097 298.163 397.814 298.011 397.487 298.207C397.317 298.32 397.175 298.472 397.073 298.65C396.971 298.827 396.911 299.026 396.899 299.231C396.899 299.623 397.16 299.775 397.487 299.579ZM395.09 300.974C395.264 300.858 395.407 300.703 395.509 300.521C395.611 300.339 395.669 300.136 395.679 299.928C395.679 299.557 395.417 299.405 395.09 299.601C394.914 299.71 394.766 299.86 394.66 300.038C394.553 300.216 394.492 300.418 394.48 300.625C394.48 300.995 394.764 301.148 395.09 300.974ZM399.905 298.185C400.075 298.071 400.217 297.919 400.319 297.742C400.421 297.564 400.481 297.365 400.493 297.161C400.493 296.791 400.232 296.638 399.883 296.812C399.71 296.928 399.567 297.083 399.464 297.265C399.362 297.447 399.304 297.65 399.295 297.858C399.295 298.229 399.578 298.381 399.905 298.185Z" fill="#B6C7D3"/>
<path d="M400.539 300.843C401.105 300.495 401.584 300.843 401.584 301.432V327.357C401.574 327.716 401.475 328.067 401.297 328.379C401.118 328.691 400.865 328.953 400.56 329.144L360.888 352.041C360.321 352.39 359.842 352.041 359.842 351.453V325.549C359.851 325.184 359.951 324.827 360.134 324.511C360.317 324.195 360.576 323.93 360.888 323.741L400.539 300.843ZM380.256 335.985L397.488 326.05V306.246L380.256 316.203V335.985ZM363.763 336.398L376.247 329.187V328.403L363.763 335.614V336.398ZM363.763 328.969L376.247 321.758V320.974L363.763 328.185V328.969ZM363.763 331.431L376.269 324.22V323.545L363.763 330.756V331.54V331.431ZM363.763 326.595L376.247 319.383V318.599L363.742 325.723V326.507L363.763 326.595ZM363.742 338.904L376.247 331.693V330.908L363.763 338.12V338.795L363.742 338.904ZM363.763 333.828L376.247 326.616V325.832L363.763 333.043V333.828ZM366.944 339.427L376.269 334.046V333.261L366.988 338.795V339.579" fill="#BEE1F4"/>
<path d="M399.795 296.834C399.622 296.95 399.479 297.105 399.376 297.286C399.274 297.468 399.216 297.671 399.207 297.879C399.207 298.25 399.49 298.402 399.817 298.206C399.987 298.092 400.129 297.941 400.231 297.763C400.333 297.586 400.393 297.387 400.405 297.182C400.405 296.812 400.144 296.659 399.795 296.834Z" fill="#EC827D"/>
<path d="M397.486 298.228C397.315 298.342 397.174 298.493 397.072 298.671C396.97 298.849 396.91 299.047 396.897 299.252C396.897 299.644 397.159 299.796 397.486 299.6C397.659 299.488 397.804 299.337 397.91 299.159C398.015 298.982 398.079 298.782 398.096 298.576C398.009 298.184 397.725 298.032 397.486 298.228Z" fill="#23489D"/>
<path d="M463.955 380.188C463.955 380.362 463.955 380.493 463.759 380.602L455.698 385.199L454.348 384.327C456.526 383.064 461.189 380.537 463.868 379.033C463.93 379.415 463.959 379.801 463.955 380.188V380.188Z" fill="#A5B7C6"/>
<path d="M463.868 378.946C461.188 380.45 456.57 382.977 454.347 384.24L437.877 373.652C439.315 372.868 440.731 372.062 442.234 371.256C444.886 369.46 447.837 368.154 450.949 367.4C454.163 367.341 457.283 368.483 459.7 370.602C462.117 372.721 463.658 375.665 464.02 378.859L463.868 378.946Z" fill="#EEEEEE"/>
<path d="M455.175 385.09C455.265 385.134 455.364 385.155 455.464 385.151C455.563 385.146 455.66 385.116 455.745 385.064C455.83 385.012 455.9 384.939 455.949 384.852C455.998 384.765 456.024 384.667 456.025 384.567C456.007 382.397 455.373 380.276 454.197 378.451C453.021 376.627 451.35 375.174 449.38 374.262C447.485 373.173 441.712 370.864 437.507 374.001C437.435 374.056 437.376 374.127 437.336 374.208C437.295 374.289 437.274 374.379 437.274 374.469C437.274 374.56 437.295 374.65 437.336 374.731C437.376 374.812 437.435 374.883 437.507 374.938C443.912 378.685 452.474 383.565 455.175 385.09Z" fill="#CCD9E2"/>
<path d="M225.987 261.955L223.198 263.589C223.478 263.383 223.702 263.109 223.846 262.793C223.991 262.476 224.053 262.128 224.026 261.781L226.815 260.147C226.851 260.495 226.793 260.846 226.647 261.164C226.502 261.482 226.274 261.755 225.987 261.955Z" fill="#A5B7C6"/>
<path d="M143.674 149.646L146.484 148.034C146.805 147.882 147.161 147.82 147.514 147.855C147.866 147.889 148.203 148.019 148.489 148.23L145.678 149.842C145.385 149.65 145.049 149.533 144.7 149.498C144.351 149.464 143.999 149.515 143.674 149.646Z" fill="#A5B7C6"/>
<path d="M224.174 198.405L226.963 196.771L226.81 260.147L224.021 261.781L224.174 198.405Z" fill="#A5B7C6"/>
<path d="M145.68 149.842L148.49 148.229L224.154 191.911L221.365 193.545L145.68 149.842Z" fill="#A5B7C6"/>
<path d="M221.367 193.546L224.156 191.912C224.973 192.445 225.653 193.162 226.141 194.006C226.63 194.85 226.912 195.797 226.966 196.771L224.178 198.405C224.124 197.431 223.841 196.484 223.353 195.64C222.864 194.796 222.184 194.079 221.367 193.546V193.546Z" fill="#A5B7C6"/>
<path d="M221.365 193.546C222.182 194.078 222.862 194.795 223.351 195.639C223.839 196.483 224.122 197.431 224.176 198.404L224.023 261.78C224.023 263.567 222.738 264.286 221.191 263.393L145.505 219.689C144.689 219.159 144.01 218.441 143.525 217.597C143.04 216.752 142.763 215.804 142.717 214.831L142.869 151.455C142.869 149.668 144.133 148.949 145.68 149.843L221.365 193.546Z" fill="#112B46"/>
<path d="M145.66 156.225L145.529 213.305L221.215 257.008L221.345 199.907L145.66 156.225Z" fill="#102B7C"/>
<path d="M222.369 265.027V268.251C222.337 268.598 222.213 268.931 222.01 269.214C221.807 269.497 221.532 269.722 221.214 269.863V266.639C221.52 266.481 221.785 266.252 221.985 265.972C222.186 265.692 222.317 265.368 222.369 265.027V265.027Z" fill="#879FAF"/>
<path d="M166.964 298.077V301.301C166.097 301.741 165.138 301.971 164.165 301.971C163.192 301.971 162.233 301.741 161.365 301.301V298.077C162.233 298.517 163.192 298.746 164.165 298.746C165.138 298.746 166.097 298.517 166.964 298.077V298.077Z" fill="#879FAF"/>
<path d="M84.5049 256.007V252.739C84.5326 253.093 84.657 253.433 84.8644 253.721C85.0719 254.009 85.3545 254.234 85.6814 254.373V257.619C85.3589 257.48 85.0796 257.258 84.8727 256.974C84.6657 256.69 84.5387 256.356 84.5049 256.007V256.007Z" fill="#879FAF"/>
<path d="M221.215 266.637L221.193 269.862L166.945 301.299L166.967 298.075L221.215 266.637Z" fill="#879FAF"/>
<path d="M161.366 298.076L161.345 301.301L85.6592 257.619L85.681 254.373L161.366 298.076Z" fill="#879FAF"/>
<path d="M221.19 263.391C221.525 263.51 221.816 263.73 222.022 264.02C222.228 264.311 222.338 264.658 222.338 265.014C222.338 265.371 222.228 265.718 222.022 266.009C221.816 266.299 221.525 266.519 221.19 266.638L166.942 298.075C166.074 298.515 165.115 298.745 164.142 298.745C163.17 298.745 162.21 298.515 161.343 298.075L85.6573 254.372C85.3215 254.253 85.0307 254.034 84.825 253.743C84.6193 253.452 84.5088 253.105 84.5088 252.749C84.5088 252.393 84.6193 252.045 84.825 251.755C85.0307 251.464 85.3215 251.244 85.6573 251.126L139.905 219.688C140.773 219.248 141.732 219.019 142.705 219.019C143.677 219.019 144.637 219.248 145.504 219.688L221.19 263.391Z" fill="#A5B7C6"/>
<path d="M159.798 271.584L131.889 255.462C131.456 255.247 130.979 255.135 130.495 255.135C130.011 255.135 129.534 255.247 129.101 255.462L114.678 263.763C113.916 264.22 113.916 264.939 114.678 265.397L142.587 281.497C143.022 281.717 143.504 281.832 143.992 281.832C144.48 281.832 144.961 281.717 145.397 281.497L159.798 273.196C160.582 272.739 160.582 272.02 159.798 271.584" fill="#B6C7D3"/>
<path d="M146.333 224.635V225.441L141.235 228.404V227.598L146.333 224.635Z" fill="#112B46"/>
<path d="M141.234 227.597V228.403L136.224 225.505V224.699L141.234 227.597Z" fill="#112B46"/>
<path d="M146.332 224.635L141.234 227.598L136.224 224.7L141.322 221.737L146.332 224.635Z" fill="#56548C"/>
<path d="M152.783 228.339V229.145L147.685 232.108V231.302L152.783 228.339Z" fill="#112B46"/>
<path d="M147.684 231.301V232.107L142.651 229.209V228.403L147.684 231.301Z" fill="#112B46"/>
<path d="M152.783 228.339L147.685 231.302L142.652 228.404L147.75 225.441L152.783 228.339Z" fill="#56548C"/>
<path d="M159.189 232.042V232.848L154.091 235.811V235.005L159.189 232.042Z" fill="#112B46"/>
<path d="M154.09 235.005V235.811L149.079 232.913V232.107L154.09 235.005Z" fill="#112B46"/>
<path d="M159.189 232.043L154.091 235.006L149.08 232.108L154.178 229.145L159.189 232.043Z" fill="#56548C"/>
<path d="M165.617 235.745V236.551L160.519 239.514V238.708L165.617 235.745Z" fill="#112B46"/>
<path d="M160.518 238.709V239.515L155.507 236.618V235.812L160.518 238.709Z" fill="#112B46"/>
<path d="M165.617 235.745L160.519 238.708L155.508 235.811L160.606 232.87L165.617 235.745Z" fill="#56548C"/>
<path d="M172.04 239.472V240.278L166.942 243.219V242.413L172.04 239.472Z" fill="#112B46"/>
<path d="M166.941 242.413V243.219L161.931 240.343V239.537L166.941 242.413Z" fill="#112B46"/>
<path d="M172.043 239.472L166.945 242.413L161.935 239.537L167.033 236.574L172.043 239.472Z" fill="#56548C"/>
<path d="M178.47 243.174V243.98L173.372 246.943V246.137L178.47 243.174Z" fill="#112B46"/>
<path d="M173.371 246.138V246.944L168.36 244.047V243.24L173.371 246.138Z" fill="#112B46"/>
<path d="M178.47 243.174L173.372 246.137L168.361 243.24L173.459 240.277L178.47 243.174Z" fill="#56548C"/>
<path d="M184.897 246.878L184.875 247.684L179.799 250.647V249.841L184.897 246.878Z" fill="#112B46"/>
<path d="M179.798 249.841V250.647L174.787 247.749V246.943L179.798 249.841Z" fill="#112B46"/>
<path d="M184.897 246.878L179.799 249.841L174.788 246.944L179.864 243.981L184.897 246.878Z" fill="#56548C"/>
<path d="M191.3 250.581V251.387L186.202 254.35V253.544L191.3 250.581Z" fill="#112B46"/>
<path d="M186.201 253.543V254.349L181.19 251.451V250.645L186.201 253.543Z" fill="#112B46"/>
<path d="M191.3 250.581L186.202 253.544L181.191 250.646L186.289 247.683L191.3 250.581Z" fill="#56548C"/>
<path d="M197.728 254.305V255.111L192.63 258.074L192.652 257.268L197.728 254.305Z" fill="#112B46"/>
<path d="M192.651 257.267L192.629 258.073L187.618 255.176V254.348L192.651 257.267Z" fill="#112B46"/>
<path d="M197.727 254.306L192.651 257.269L187.618 254.35L192.716 251.387L197.727 254.306Z" fill="#56548C"/>
<path d="M204.157 258.01V258.816L199.059 261.779V260.973L204.157 258.01Z" fill="#112B46"/>
<path d="M199.058 260.973V261.779L194.047 258.881V258.075L199.058 260.973Z" fill="#112B46"/>
<path d="M204.157 258.01L199.059 260.973L194.048 258.076L199.146 255.113L204.157 258.01Z" fill="#56548C"/>
<path d="M217.008 265.419V266.225L211.91 269.188V268.382L217.008 265.419Z" fill="#112B46"/>
<path d="M211.909 268.382V269.188L200.472 262.586V261.78L211.909 268.382Z" fill="#112B46"/>
<path d="M217.008 265.418L211.91 268.381L200.473 261.78L205.571 258.817L217.008 265.418Z" fill="#56548C"/>
<path d="M146.29 232.106V232.913L141.192 235.875V235.069L146.29 232.106Z" fill="#112B46"/>
<path d="M141.192 235.069V235.875L129.754 229.273V228.446L141.192 235.069Z" fill="#112B46"/>
<path d="M146.291 232.107L141.193 235.07L129.755 228.447L134.831 225.506L146.291 232.107Z" fill="#56548C"/>
<path d="M152.694 235.809V236.615L147.618 239.578V238.772L152.694 235.809Z" fill="#112B46"/>
<path d="M147.617 238.772V239.578L142.606 236.681V235.875L147.617 238.772Z" fill="#112B46"/>
<path d="M152.695 235.809L147.619 238.772L142.608 235.875L147.685 232.934L152.695 235.809Z" fill="#56548C"/>
<path d="M159.123 239.536V240.342L154.047 243.283V242.477L159.123 239.536Z" fill="#112B46"/>
<path d="M154.047 242.477V243.283L149.036 240.386V239.58L154.047 242.477Z" fill="#112B46"/>
<path d="M159.123 239.536L154.047 242.477L149.036 239.579L154.112 236.638L159.123 239.536Z" fill="#56548C"/>
<path d="M165.549 243.24V244.047L160.451 246.988V246.182L165.549 243.24Z" fill="#112B46"/>
<path d="M160.45 246.181V246.987L155.439 244.089V243.283L160.45 246.181Z" fill="#112B46"/>
<path d="M165.549 243.24L160.451 246.181L155.44 243.283L160.538 240.342L165.549 243.24Z" fill="#56548C"/>
<path d="M171.979 246.942V247.748L166.902 250.711V249.905L171.979 246.942Z" fill="#112B46"/>
<path d="M166.902 249.905V250.711L161.869 247.814V247.008L166.902 249.905Z" fill="#112B46"/>
<path d="M171.978 246.942L166.902 249.905L161.869 247.008L166.967 244.045L171.978 246.942Z" fill="#56548C"/>
<path d="M178.405 250.646V251.453L173.307 254.416V253.609L178.405 250.646Z" fill="#112B46"/>
<path d="M173.306 253.609V254.415L168.295 251.518V250.711L173.306 253.609Z" fill="#112B46"/>
<path d="M178.405 250.647L173.307 253.61L168.296 250.713L173.372 247.75L178.405 250.647Z" fill="#56548C"/>
<path d="M184.81 254.35V255.178L179.733 258.119V257.313L184.81 254.35Z" fill="#112B46"/>
<path d="M179.734 257.314V258.12L174.723 255.222V254.416L179.734 257.314Z" fill="#112B46"/>
<path d="M184.811 254.35L179.734 257.313L174.724 254.416L179.8 251.453L184.811 254.35Z" fill="#56548C"/>
<path d="M191.258 258.076L191.236 258.882L186.16 261.845V261.017L191.258 258.076Z" fill="#112B46"/>
<path d="M186.16 261.017V261.845L181.127 258.926V258.12L186.16 261.017Z" fill="#112B46"/>
<path d="M191.26 258.077L186.162 261.018L181.129 258.12L186.227 255.179L191.26 258.077Z" fill="#56548C"/>
<path d="M197.661 261.78V262.586L192.585 265.549V264.721L197.661 261.78Z" fill="#112B46"/>
<path d="M192.584 264.72V265.548L187.573 262.65V261.844L192.584 264.72Z" fill="#112B46"/>
<path d="M197.663 261.78L192.587 264.721L187.576 261.845L192.652 258.882L197.663 261.78Z" fill="#56548C"/>
<path d="M204.087 265.485V266.291L199.011 269.254V268.448L204.087 265.485Z" fill="#112B46"/>
<path d="M199.012 268.447V269.253L193.979 266.356V265.55L199.012 268.447Z" fill="#112B46"/>
<path d="M204.089 265.484L199.013 268.447L193.98 265.549L199.078 262.586L204.089 265.484Z" fill="#56548C"/>
<path d="M210.516 269.207V270.013L205.439 272.954V272.148L210.516 269.207Z" fill="#112B46"/>
<path d="M205.44 272.149V272.955L200.407 270.057V269.251L205.44 272.149Z" fill="#112B46"/>
<path d="M210.517 269.208L205.441 272.149L200.408 269.252L205.484 266.289L210.517 269.208Z" fill="#56548C"/>
<path d="M139.8 235.877V236.683L134.724 239.646V238.84L139.8 235.877Z" fill="#112B46"/>
<path d="M134.722 238.84V239.646L123.263 233.023L123.284 232.217L134.722 238.84Z" fill="#112B46"/>
<path d="M139.8 235.876L134.724 238.839L123.286 232.216L128.362 229.275L139.8 235.876Z" fill="#56548C"/>
<path d="M146.222 239.58V240.386L141.146 243.349V242.543L146.222 239.58Z" fill="#112B46"/>
<path d="M141.147 242.542V243.348L136.114 240.451V239.645L141.147 242.542Z" fill="#112B46"/>
<path d="M146.225 239.579L141.149 242.542L136.116 239.644L141.214 236.681L146.225 239.579Z" fill="#56548C"/>
<path d="M152.653 243.283V244.09L147.555 247.052V246.246L152.653 243.283Z" fill="#112B46"/>
<path d="M147.554 246.247V247.053L142.543 244.155V243.349L147.554 246.247Z" fill="#112B46"/>
<path d="M152.655 243.283L147.557 246.246L142.546 243.349L147.622 240.407L152.655 243.283Z" fill="#56548C"/>
<path d="M159.055 247.011V247.817L153.979 250.758V249.952L159.055 247.011Z" fill="#112B46"/>
<path d="M153.978 249.951V250.757L148.967 247.86V247.054L153.978 249.951Z" fill="#112B46"/>
<path d="M159.055 247.01L153.979 249.951L148.968 247.053L154.044 244.112L159.055 247.01Z" fill="#56548C"/>
<path d="M165.507 250.712L165.485 251.518L160.409 254.481V253.675L165.507 250.712Z" fill="#112B46"/>
<path d="M160.407 253.675V254.481L155.396 251.583V250.777L160.407 253.675Z" fill="#112B46"/>
<path d="M165.505 250.712L160.407 253.675L155.396 250.777L160.473 247.814L165.505 250.712Z" fill="#56548C"/>
<path d="M171.912 254.417V255.223L166.836 258.186V257.38L171.912 254.417Z" fill="#112B46"/>
<path d="M166.835 257.379V258.185L161.824 255.288V254.481L166.835 257.379Z" fill="#112B46"/>
<path d="M171.911 254.417L166.835 257.38L161.824 254.482L166.9 251.519L171.911 254.417Z" fill="#56548C"/>
<path d="M178.338 258.121V258.927L173.24 261.89L173.262 261.084L178.338 258.121Z" fill="#112B46"/>
<path d="M173.261 261.082L173.239 261.888L168.229 258.991L168.25 258.185L173.261 261.082Z" fill="#112B46"/>
<path d="M178.341 258.121L173.265 261.084L168.254 258.186L173.33 255.223L178.341 258.121Z" fill="#56548C"/>
<path d="M184.768 261.843V262.649L179.691 265.59V264.784L184.768 261.843Z" fill="#112B46"/>
<path d="M179.691 264.785V265.591L174.658 262.693V261.887L179.691 264.785Z" fill="#112B46"/>
<path d="M184.768 261.845L179.692 264.786L174.659 261.889L179.735 258.926L184.768 261.845Z" fill="#56548C"/>
<path d="M191.192 265.549V266.355L186.094 269.296L186.116 268.49L191.192 265.549Z" fill="#112B46"/>
<path d="M186.115 268.49L186.093 269.296L181.082 266.42V265.614L186.115 268.49Z" fill="#112B46"/>
<path d="M191.191 265.549L186.115 268.49L181.082 265.614L186.18 262.651L191.191 265.549Z" fill="#56548C"/>
<path d="M204.045 272.955V273.783L198.947 276.724L198.969 275.918L204.045 272.955Z" fill="#112B46"/>
<path d="M198.968 275.919L198.947 276.725L187.509 270.124V269.318L198.968 275.919Z" fill="#112B46"/>
<path d="M204.045 272.956L198.968 275.919L187.509 269.318L192.585 266.355L204.045 272.956Z" fill="#56548C"/>
<path d="M139.751 243.348L139.73 244.154L134.653 247.117V246.311L139.751 243.348Z" fill="#112B46"/>
<path d="M134.654 246.311V247.117L116.789 236.79V235.984L134.654 246.311Z" fill="#112B46"/>
<path d="M139.753 243.349L134.655 246.312L116.79 235.985L121.888 233.044L139.753 243.349Z" fill="#56548C"/>
<path d="M146.16 247.054V247.86L141.084 250.823V250.017L146.16 247.054Z" fill="#112B46"/>
<path d="M141.084 250.016V250.823L136.073 247.925V247.119L141.084 250.016Z" fill="#112B46"/>
<path d="M146.161 247.053L141.085 250.016L136.074 247.118L141.15 244.155L146.161 247.053Z" fill="#56548C"/>
<path d="M152.588 250.755V251.561L147.512 254.524V253.718L152.588 250.755Z" fill="#112B46"/>
<path d="M147.511 253.719V254.525L142.479 251.627L142.5 250.821L147.511 253.719Z" fill="#112B46"/>
<path d="M152.588 250.756L147.512 253.719L142.501 250.821L147.577 247.858L152.588 250.756Z" fill="#56548C"/>
<path d="M159.013 254.481V255.287L153.937 258.228V257.422L159.013 254.481Z" fill="#112B46"/>
<path d="M153.936 257.423V258.229L148.925 255.332V254.526L153.936 257.423Z" fill="#112B46"/>
<path d="M159.013 254.481L153.937 257.422L148.926 254.524L154.002 251.583L159.013 254.481Z" fill="#56548C"/>
<path d="M165.44 258.185V258.991L160.364 261.954V261.126L165.44 258.185Z" fill="#112B46"/>
<path d="M160.366 261.127V261.954L155.333 259.057V258.251L160.366 261.127Z" fill="#112B46"/>
<path d="M165.442 258.185L160.366 261.126L155.333 258.251L160.431 255.288L165.442 258.185Z" fill="#56548C"/>
<path d="M171.867 261.89L171.845 262.696L166.769 265.659V264.853L171.867 261.89Z" fill="#112B46"/>
<path d="M166.769 264.852V265.658L161.758 262.761V261.955L166.769 264.852Z" fill="#112B46"/>
<path d="M171.869 261.889L166.771 264.852L161.76 261.955L166.836 258.992L171.869 261.889Z" fill="#56548C"/>
<path d="M178.295 265.614V266.42L173.197 269.361L173.219 268.555L178.295 265.614Z" fill="#112B46"/>
<path d="M173.218 268.555L173.196 269.361L168.186 266.463V265.657L173.218 268.555Z" fill="#112B46"/>
<path d="M178.294 265.614L173.218 268.555L168.186 265.657L173.262 262.695L178.294 265.614Z" fill="#56548C"/>
<path d="M184.722 269.318L184.7 270.124L179.624 273.065V272.259L184.722 269.318Z" fill="#112B46"/>
<path d="M179.622 272.26V273.066L174.611 270.168V269.362L179.622 272.26Z" fill="#112B46"/>
<path d="M184.72 269.317L179.622 272.258L174.611 269.361L179.688 266.42L184.72 269.317Z" fill="#56548C"/>
<path d="M197.554 276.723V277.53L192.478 280.492V279.686L197.554 276.723Z" fill="#112B46"/>
<path d="M192.479 279.686V280.492L181.041 273.891V273.063L192.479 279.686Z" fill="#112B46"/>
<path d="M197.556 276.724L192.48 279.687L181.042 273.064L186.118 270.123L197.556 276.724Z" fill="#56548C"/>
<path d="M120.41 239.688V240.494L115.312 243.457L115.333 242.651L120.41 239.688Z" fill="#112B46"/>
<path d="M115.332 242.65L115.311 243.456L110.3 240.558V239.752L115.332 242.65Z" fill="#112B46"/>
<path d="M120.409 239.688L115.332 242.651L110.3 239.753L115.398 236.791L120.409 239.688Z" fill="#56548C"/>
<path d="M126.857 243.414V244.22L121.759 247.183V246.377L126.857 243.414Z" fill="#112B46"/>
<path d="M121.759 246.376V247.182L116.727 244.285V243.457L121.759 246.376Z" fill="#112B46"/>
<path d="M126.857 243.415L121.759 246.378L116.727 243.459L121.825 240.496L126.857 243.415Z" fill="#56548C"/>
<path d="M133.263 247.116V247.923L128.165 250.885V250.079L133.263 247.116Z" fill="#112B46"/>
<path d="M128.165 250.08V250.886L123.154 247.988V247.182L128.165 250.08Z" fill="#112B46"/>
<path d="M133.266 247.118L128.168 250.08L123.157 247.183L128.255 244.22L133.266 247.118Z" fill="#56548C"/>
<path d="M165.374 265.658V266.464L160.276 269.427V268.621L165.374 265.658Z" fill="#112B46"/>
<path d="M160.276 268.62V269.426L129.579 251.692V250.886L160.276 268.62Z" fill="#112B46"/>
<path d="M165.374 265.658L160.276 268.621L129.579 250.887L134.677 247.924L165.374 265.658Z" fill="#56548C"/>
<path d="M171.804 269.362V270.168L166.706 273.131L166.728 272.325L171.804 269.362Z" fill="#112B46"/>
<path d="M166.727 272.324L166.705 273.13L161.694 270.233V269.427L166.727 272.324Z" fill="#112B46"/>
<path d="M171.805 269.361L166.729 272.324L161.696 269.427L166.794 266.464L171.805 269.361Z" fill="#56548C"/>
<path d="M178.228 273.065V273.893L173.13 276.834V276.028L178.228 273.065Z" fill="#112B46"/>
<path d="M173.129 276.029V276.835L168.118 273.959V273.131L173.129 276.029Z" fill="#112B46"/>
<path d="M178.228 273.065L173.13 276.028L168.119 273.13L173.217 270.167L178.228 273.065Z" fill="#56548C"/>
<path d="M191.083 280.495V281.301L185.985 284.264V283.458L191.083 280.495Z" fill="#112B46"/>
<path d="M185.986 283.456V284.263L174.548 277.661V276.855L185.986 283.456Z" fill="#112B46"/>
<path d="M191.084 280.495L185.986 283.458L174.548 276.857L179.646 273.894L191.084 280.495Z" fill="#56548C"/>
<path d="M154.418 210.8L212.979 244.612V202.434L154.418 168.621V210.8Z" fill="#BEE1F4"/>
<path d="M209.058 206.442L188.121 194.351V223.763L209.058 235.854V206.442Z" fill="#102B7C"/>
<path d="M160.231 179.994L183.695 193.545V191.824L160.231 178.272V179.994Z" fill="#56548C"/>
<path d="M160.231 183.981L183.695 197.532V195.79L160.231 182.239V183.981Z" fill="#56548C"/>
<path d="M160.231 187.968L183.695 201.497V199.776L160.231 186.225V187.968Z" fill="#56548C"/>
<path d="M160.231 191.933L183.695 205.484V203.763L160.231 190.212V191.933Z" fill="#56548C"/>
<path d="M160.231 195.92L183.695 209.471V207.75L160.231 194.198V195.92Z" fill="#56548C"/>
<path d="M160.231 199.907L183.695 213.458V211.737L160.231 198.186V199.907Z" fill="#56548C"/>
<path d="M160.231 207.86L176.571 217.293V215.572L160.231 206.138V207.86Z" fill="#56548C"/>
<path d="M160.231 203.894L183.695 217.424V215.702L160.231 202.151V203.894Z" fill="#56548C"/>
<path d="M196.814 202.019L190.627 210.82L203.002 217.966L196.814 202.019Z" fill="#FBD15B"/>
<path d="M201.759 207.467L195.594 216.269L207.947 223.415L201.759 207.467Z" fill="#23489D"/>
<path d="M206.595 225.506C206.595 228.577 204.416 229.863 201.78 228.294C200.373 227.378 199.201 226.143 198.361 224.69C197.52 223.236 197.035 221.605 196.943 219.928C196.943 216.856 199.122 215.571 201.78 217.14C203.181 218.06 204.346 219.297 205.182 220.75C206.018 222.203 206.502 223.832 206.595 225.506V225.506Z" fill="#EC827D"/>
<path d="M422.672 108.753L429.012 115.986L432.127 110.583L422.672 108.753Z" fill="white"/>
<path d="M422.672 108.753L424.415 110.735L425.264 109.254L422.672 108.753Z" fill="#23489D"/>
<path d="M432.128 110.604C431.874 110.482 431.591 110.432 431.311 110.459C431.031 110.486 430.763 110.589 430.537 110.756C429.899 111.175 429.369 111.739 428.99 112.401C428.612 113.064 428.395 113.807 428.359 114.569C428.335 114.842 428.382 115.116 428.497 115.364C428.612 115.613 428.789 115.827 429.012 115.985L475.243 142.848C475.016 142.692 474.836 142.479 474.721 142.229C474.606 141.98 474.56 141.705 474.589 141.432C474.626 140.669 474.842 139.926 475.221 139.264C475.599 138.601 476.129 138.037 476.768 137.619C476.99 137.454 477.253 137.351 477.528 137.32C477.804 137.29 478.083 137.332 478.336 137.445L432.128 110.604Z" fill="#23489D"/>
<path d="M476.767 137.619C477.987 136.9 478.945 137.466 478.945 138.882C478.907 139.644 478.69 140.386 478.311 141.049C477.933 141.711 477.403 142.275 476.767 142.695C475.546 143.392 474.588 142.826 474.588 141.431C474.624 140.669 474.841 139.926 475.22 139.264C475.598 138.601 476.128 138.037 476.767 137.619V137.619Z" fill="#3868BB"/>
<path d="M444.696 112.544L451.036 119.777L454.152 114.396L444.696 112.544Z" fill="white"/>
<path d="M444.696 112.544L446.439 114.527L447.289 113.046L444.696 112.544Z" fill="#EC827D"/>
<path d="M454.131 114.396C453.877 114.274 453.595 114.224 453.314 114.251C453.034 114.278 452.766 114.381 452.54 114.549C451.902 114.967 451.372 115.531 450.993 116.193C450.615 116.856 450.398 117.599 450.362 118.361C450.335 118.634 450.382 118.909 450.497 119.158C450.612 119.407 450.791 119.62 451.015 119.777L480.841 137.206C480.618 137.048 480.44 136.834 480.325 136.585C480.211 136.337 480.163 136.063 480.187 135.79C480.215 134.995 480.435 134.219 480.83 133.528C481.225 132.837 481.782 132.253 482.453 131.825C482.684 131.668 482.95 131.571 483.228 131.544C483.506 131.518 483.787 131.562 484.043 131.673L454.131 114.396Z" fill="#EC827D"/>
<path d="M482.453 131.824C483.673 131.127 484.632 131.694 484.632 133.088C484.598 133.854 484.384 134.601 484.005 135.268C483.626 135.934 483.094 136.502 482.453 136.922C481.233 137.619 480.274 137.053 480.274 135.659C480.313 134.894 480.53 134.148 480.908 133.483C481.287 132.817 481.816 132.249 482.453 131.824V131.824Z" fill="#D34C4C"/>
<path d="M415.155 122.696C415.022 122.643 414.906 122.554 414.821 122.438C414.737 122.323 414.686 122.186 414.676 122.043V127.838C414.691 127.979 414.743 128.114 414.827 128.229C414.911 128.344 415.025 128.435 415.155 128.491L421.691 132.26V126.465L415.155 122.696Z" fill="#3868BB"/>
<path d="M430.34 121.411L430.318 127.206L421.647 132.26L421.669 126.465L430.34 121.411Z" fill="#00C3B6"/>
<path d="M430.34 121.411L421.625 126.465L415.089 122.696C414.956 122.647 414.841 122.557 414.76 122.441C414.678 122.324 414.635 122.185 414.635 122.043C414.635 121.9 414.678 121.761 414.76 121.644C414.841 121.528 414.956 121.438 415.089 121.389L421.625 117.642C421.966 117.481 422.338 117.397 422.714 117.397C423.091 117.397 423.463 117.481 423.804 117.642L430.34 121.411Z" fill="#23489D"/>
<path d="M434.894 124.025L434.872 129.82L426.18 134.875L426.201 129.08L434.894 124.025Z" fill="#EEEEEE"/>
<path d="M426.201 129.08L426.179 134.875L421.647 132.26L421.669 126.465L426.201 129.08Z" fill="#CECCFF"/>
<path d="M434.893 124.025L426.2 129.079L421.669 126.465L430.34 121.411L434.893 124.025Z" fill="white"/>
<path d="M441.408 129.08L434.872 132.849C434.533 133.016 434.16 133.103 433.782 133.103C433.405 133.103 433.032 133.016 432.693 132.849L426.157 129.102V134.875L432.693 138.644C433.034 138.805 433.406 138.888 433.782 138.888C434.159 138.888 434.531 138.805 434.872 138.644L441.408 134.875C441.534 134.821 441.643 134.733 441.723 134.622C441.804 134.511 441.853 134.38 441.865 134.243V128.448C441.853 128.585 441.804 128.716 441.723 128.827C441.643 128.938 441.534 129.025 441.408 129.08V129.08Z" fill="#D34C4C"/>
<path d="M441.385 127.794C442.017 128.142 442.017 128.731 441.385 129.079L434.849 132.848C434.51 133.015 434.138 133.102 433.76 133.102C433.382 133.102 433.009 133.015 432.671 132.848L426.135 129.101L434.849 124.047L441.385 127.794Z" fill="#EC827D"/>
<path d="M354.044 73.5241L261.344 127.053C259.165 128.295 259.47 130.452 261.954 131.868L315.635 162.87C316.904 163.581 318.323 163.983 319.777 164.044C321.23 164.104 322.677 163.821 324.001 163.218L416.68 109.689C418.859 108.469 418.575 106.291 416.092 104.875L362.41 73.8727C361.14 73.1664 359.721 72.7671 358.269 72.7066C356.816 72.646 355.37 72.926 354.044 73.5241V73.5241Z" fill="white"/>
<path d="M362.191 90.8455L368.27 87.3379L403.76 107.817L397.659 111.346L362.191 90.8455Z" fill="#EAEEEF"/>
<path d="M349.142 98.3826L355.242 94.875L390.71 115.354L384.631 118.862L349.142 98.3826Z" fill="#EAEEEF"/>
<path d="M336.114 105.92L342.193 102.391L377.682 122.892L371.582 126.399L336.114 105.92Z" fill="#EAEEEF"/>
<path d="M323.063 113.436L329.142 109.929L364.632 130.408L358.553 133.937L323.063 113.436Z" fill="#EAEEEF"/>
<path d="M310.036 120.975L316.115 117.446L351.604 137.946L345.504 141.454L310.036 120.975Z" fill="#EAEEEF"/>
<path d="M362.191 90.8455L368.27 87.3379L377.137 92.4577L371.058 95.9652L362.191 90.8455Z" fill="#FFC8AF"/>
<path d="M349.142 98.3826L355.242 94.875L375.917 106.814L369.817 110.321L349.142 98.3826Z" fill="#FBD15B"/>
<path d="M336.114 105.92L342.193 102.391L357.291 111.105L351.19 114.635L336.114 105.92Z" fill="#23489D"/>
<path d="M323.063 113.436L329.142 109.929L354.741 124.7L348.662 128.229L323.063 113.436Z" fill="#56548C"/>
<path d="M310.036 120.975L316.115 117.446L346.289 134.875L340.21 138.404L310.036 120.975Z" fill="#EC827D"/>
<path d="M337.052 143.393L317.313 154.766L319.884 156.247L339.623 144.853L337.052 143.393Z" fill="#EAEEEF"/>
<path d="M331.147 139.973L311.408 151.367L313.979 152.827L333.696 141.454L331.147 139.973Z" fill="#EAEEEF"/>
<path d="M325.219 136.553L305.503 147.947L308.052 149.428L327.79 138.034L325.219 136.553Z" fill="#EAEEEF"/>
<path d="M319.318 133.132L299.58 144.526L302.151 146.008L321.867 134.614L319.318 133.132Z" fill="#EAEEEF"/>
<path d="M313.391 129.733L293.675 141.106L296.224 142.587L315.962 131.215L313.391 129.733Z" fill="#EAEEEF"/>
<path d="M307.487 126.313L287.749 137.707L290.32 139.189L310.036 127.794L307.487 126.313Z" fill="#EAEEEF"/>
<path d="M295.657 119.473L281.91 127.403L284.481 128.884L298.206 120.954L295.657 119.473Z" fill="#EAEEEF"/>
<path d="M301.561 122.893L281.845 134.287L284.394 135.768L304.132 124.374L301.561 122.893Z" fill="#EAEEEF"/>
<path d="M362.061 83.7646L303.826 117.381L306.375 118.862L364.632 85.2461L362.061 83.7646Z" fill="#EAEEEF"/>
<path d="M359.143 156.443L400.624 132.479L424.218 146.117L382.759 170.06L359.143 156.443Z" fill="#FBD15B"/>
<path d="M382.76 170.061L387.335 148.776L424.219 146.118L382.76 170.061Z" fill="#EFBC3F"/>
<path d="M400.624 132.479L395.94 153.72L359.143 156.443L400.624 132.479Z" fill="#FFDC85"/>
<path d="M588.509 188.099L660.185 229.471L569.707 281.692L498.03 240.32L588.509 188.099Z" fill="white"/>
<path d="M569.118 240.756L559.227 225.004C555.484 225.716 551.879 227.026 548.552 228.882L569.118 240.756Z" fill="#EC827D"/>
<path d="M569.117 240.756L589.683 228.883C581.514 224.155 569.509 222.87 559.183 225.005L569.117 240.756Z" fill="#3868BB"/>
<path d="M548.553 252.542L569.119 240.668L540.274 238.49C539.098 243.675 542.191 248.86 548.553 252.542Z" fill="#EC827D"/>
<path d="M579.009 256.421C582.75 255.699 586.353 254.39 589.684 252.543C600.97 246.007 600.97 235.31 589.684 228.796L569.118 240.756L579.009 256.421Z" fill="#23489D"/>
<path d="M579.009 256.421L569.118 240.756L548.552 252.63C556.722 257.249 568.726 258.534 579.009 256.421Z" fill="#FBD15B"/>
<path d="M627.55 238.883C627.415 238.923 627.271 238.923 627.136 238.883L573.193 207.642C573.006 207.529 572.871 207.346 572.818 207.134C572.765 206.921 572.798 206.697 572.91 206.509C572.962 206.415 573.032 206.332 573.117 206.266C573.202 206.2 573.3 206.152 573.404 206.126C573.508 206.099 573.617 206.094 573.723 206.112C573.829 206.129 573.93 206.168 574.021 206.226L627.964 237.358C628.058 237.41 628.14 237.481 628.206 237.565C628.273 237.649 628.321 237.746 628.35 237.85C628.378 237.953 628.386 238.061 628.372 238.168C628.358 238.274 628.323 238.377 628.269 238.469C628.194 238.594 628.089 238.698 627.963 238.77C627.837 238.842 627.695 238.881 627.55 238.883V238.883Z" fill="#CECCFF"/>
<path d="M633.887 235.222C633.741 235.227 633.597 235.189 633.473 235.113L579.53 203.981C579.343 203.868 579.208 203.685 579.155 203.473C579.102 203.26 579.135 203.036 579.247 202.848C579.298 202.753 579.369 202.671 579.454 202.605C579.539 202.539 579.637 202.491 579.741 202.465C579.845 202.438 579.954 202.433 580.06 202.45C580.166 202.468 580.267 202.506 580.358 202.565L634.301 233.697C634.393 233.751 634.473 233.823 634.537 233.908C634.601 233.993 634.648 234.09 634.674 234.193C634.701 234.297 634.706 234.404 634.691 234.51C634.675 234.615 634.639 234.717 634.584 234.808C634.52 234.937 634.421 235.046 634.297 235.119C634.173 235.193 634.031 235.228 633.887 235.222V235.222Z" fill="#CECCFF"/>
<path d="M640.227 231.563C640.081 231.571 639.937 231.532 639.813 231.454L585.871 200.321C585.684 200.208 585.548 200.027 585.491 199.816C585.434 199.605 585.461 199.38 585.566 199.188C585.679 199.001 585.861 198.866 586.074 198.813C586.286 198.76 586.511 198.793 586.698 198.905L640.641 230.038C640.829 230.151 640.964 230.333 641.017 230.546C641.07 230.758 641.037 230.982 640.924 231.17C640.854 231.292 640.752 231.393 640.63 231.462C640.507 231.531 640.368 231.566 640.227 231.563V231.563Z" fill="#CECCFF"/>
<path d="M645.676 285.114V295.223C645.603 296.015 645.32 296.773 644.857 297.42C644.393 298.067 643.766 298.58 643.04 298.904V288.883C643.779 288.551 644.414 288.025 644.878 287.362C645.342 286.698 645.618 285.921 645.676 285.114V285.114Z" fill="#EFBC3F"/>
<path d="M544.457 295.221V285.178C544.532 285.984 544.82 286.755 545.291 287.413C545.762 288.072 546.399 288.593 547.137 288.925V298.947C546.399 298.62 545.762 298.103 545.29 297.448C544.819 296.793 544.532 296.024 544.457 295.221V295.221Z" fill="#FFDC85"/>
<path d="M643.039 288.816L643.017 298.837L601.602 322.911L601.645 312.868L643.039 288.816Z" fill="#EFBC3F"/>
<path d="M588.856 312.868L588.813 322.911L547.136 298.837L547.158 288.816L588.856 312.868Z" fill="#FFDC85"/>
<path d="M601.646 312.869V322.912C599.667 323.915 597.48 324.438 595.262 324.438C593.044 324.438 590.857 323.915 588.879 322.912V312.869C590.865 313.872 593.059 314.395 595.284 314.395C597.509 314.395 599.703 313.872 601.689 312.869H601.646Z" fill="#FFDC85"/>
<path d="M643.023 281.409C646.553 283.435 646.574 286.747 643.023 288.817L601.629 312.782C599.648 313.786 597.457 314.31 595.235 314.31C593.013 314.31 590.823 313.786 588.841 312.782L547.164 288.817C543.613 286.747 543.591 283.435 547.164 281.388L588.558 257.423C590.542 256.413 592.736 255.886 594.963 255.886C597.189 255.886 599.384 256.413 601.368 257.423L643.023 281.409Z" fill="#FBD15B"/>
<path d="M729.075 256.574V266.617C728.994 267.413 728.706 268.174 728.24 268.824C727.774 269.474 727.145 269.99 726.417 270.321V260.277C727.148 259.95 727.779 259.435 728.246 258.784C728.712 258.134 728.999 257.371 729.075 256.574V256.574Z" fill="#D86868"/>
<path d="M627.834 266.573V256.53C627.902 257.361 628.196 258.157 628.684 258.832C629.171 259.508 629.834 260.038 630.601 260.364V270.408C629.834 270.081 629.171 269.552 628.684 268.876C628.196 268.2 627.902 267.404 627.834 266.573V266.573Z" fill="#F49898"/>
<path d="M726.44 260.277L726.397 270.299L685.003 294.372L685.046 284.329L726.44 260.277Z" fill="#D86868"/>
<path d="M672.236 284.351L672.215 294.372L630.516 270.299L630.559 260.277L672.236 284.351Z" fill="#F49898"/>
<path d="M685.067 284.329V294.373C683.081 295.376 680.887 295.899 678.662 295.899C676.437 295.899 674.243 295.376 672.257 294.373V284.329C674.231 285.363 676.433 285.888 678.662 285.854C680.892 285.901 683.097 285.376 685.067 284.329V284.329Z" fill="#D86868"/>
<path d="M726.456 252.87C729.986 254.896 730.007 258.208 726.456 260.278L685.062 284.242C683.077 285.248 680.883 285.771 678.657 285.771C676.432 285.771 674.238 285.248 672.252 284.242L630.597 260.365C627.024 258.186 627.024 254.984 630.597 252.936L671.991 228.971C673.975 227.961 676.169 227.434 678.396 227.434C680.622 227.434 682.817 227.961 684.801 228.971L726.456 252.87Z" fill="#EC827D"/>
<path d="M611.809 297.293L608.339 299.287L607.667 298.9C606.845 298.428 606.852 297.578 607.844 297.008C608.835 296.438 610.315 296.434 611.137 296.906L611.809 297.293ZM612.872 297.333L611.632 296.621C610.464 295.95 608.552 295.95 607.277 296.682C606.002 297.415 606.002 298.514 607.171 299.185L608.41 299.897L612.872 297.333ZM609.365 295.318L608.763 294.972L607.24 295.359L605.399 294.3L606.072 293.425L605.47 293.079L602.708 296.62L603.204 296.905L609.365 295.318ZM606.568 295.542L603.876 296.234L605.08 294.687L606.568 295.542ZM604.303 292.409L603.736 292.083L599.771 294.362L598.425 293.589L597.929 293.874L601.187 295.746L601.683 295.461L600.337 294.688L604.303 292.409ZM602.567 291.411L601.965 291.065L600.442 291.452L598.601 290.393L599.274 289.518L598.672 289.172L595.91 292.713L596.405 292.998L602.567 291.411ZM599.769 291.635L597.078 292.327L598.282 290.78L599.769 291.635Z" fill="white"/>
<path d="M696.266 273.647L688.844 277.912L686.749 276.708C686.103 276.337 685.675 275.927 685.465 275.478C685.254 275.029 685.278 274.576 685.536 274.118C685.791 273.66 686.258 273.233 686.938 272.838L687.412 272.566C688.112 272.163 688.861 271.889 689.66 271.743C690.455 271.594 691.245 271.583 692.03 271.71C692.812 271.835 693.539 272.087 694.212 272.466L696.266 273.647ZM688.671 276.887L694.487 273.544L693.458 272.952C692.703 272.519 691.882 272.317 690.995 272.346C690.105 272.373 689.227 272.636 688.36 273.134L687.927 273.383C687.084 273.868 686.629 274.358 686.561 274.854C686.486 275.35 686.809 275.809 687.529 276.231L688.671 276.887ZM683.492 268.532L686.601 270.319L689.237 269.607L690.246 270.187L679.99 272.824L679.133 272.331L683.716 266.434L684.72 267.011L683.492 268.532ZM685.5 270.612L682.977 269.161L680.77 271.883L685.5 270.612ZM671.635 267.096L674.02 268.467L680.637 264.664L681.611 265.224L674.994 269.027L677.375 270.395L676.569 270.858L670.829 267.559L671.635 267.096ZM671.522 261.653L674.632 263.44L677.268 262.728L678.277 263.308L668.02 265.945L667.164 265.452L671.747 259.555L672.751 260.132L671.522 261.653ZM673.531 263.733L671.008 262.283L668.8 265.004L673.531 263.733Z" fill="white"/>
<path d="M678.638 285.854V295.897C676.399 295.957 674.184 295.431 672.211 294.372V284.329C674.192 285.366 676.402 285.891 678.638 285.854Z" fill="#F49898"/>
<path d="M601.644 312.869V322.913C599.685 323.967 597.485 324.492 595.261 324.438V314.394C597.484 314.437 599.681 313.912 601.644 312.869V312.869Z" fill="#EFBC3F"/>
<path fill-rule="evenodd" clip-rule="evenodd" d="M693.127 239.776C685.132 243.327 677.768 270.015 682.234 279.427C686.7 288.839 693.607 289.536 702.386 287.183C711.166 284.83 721.035 273.436 724.282 262.543C728.639 248.055 715.916 229.645 693.127 239.776Z" fill="#FFC8AF"/>
<path fill-rule="evenodd" clip-rule="evenodd" d="M683.758 561.777V563.956C679.532 566.439 670.099 565.132 667.637 563.956C666.024 561.516 661.624 562.147 659.162 563.128C649.728 563.956 646.264 562.561 643.105 560.252C641.515 559.097 638.748 556.047 639.009 552.823C650.208 555.306 683.758 561.777 683.758 561.777Z" fill="#112B46"/>
<path fill-rule="evenodd" clip-rule="evenodd" d="M667.634 545.438C662.234 546.976 656.758 548.234 651.229 549.206C645.15 550.078 640.793 549.076 639.333 551.254C637.874 553.433 641.076 559.076 646.457 560.971C651.839 562.867 662.841 560.688 666.915 561.559C670.989 562.431 681.272 564.304 683.756 561.777C686.239 559.25 683.756 546.897 683.756 546.897L667.634 545.438Z" fill="#112B46"/>
<path fill-rule="evenodd" clip-rule="evenodd" d="M724.76 531.864L706.329 511.233C698.965 509.054 691.253 508.684 692.233 515.59C693.105 521.603 702.69 524.305 709.27 530.078L715.348 535.481C719.706 539.359 725.305 535.96 724.76 531.973" fill="#112B46"/>
<path fill-rule="evenodd" clip-rule="evenodd" d="M707.31 273.282C706.64 274.062 705.912 274.791 705.132 275.461C700.606 278.948 695.417 281.476 689.881 282.89C688.944 283.13 687.942 283.348 686.896 283.522L687.245 288.685C693.454 290.406 699.511 287.77 703.803 286.507C707.005 285.635 711.972 284.807 711.972 281.43L707.267 273.13L707.31 273.282Z" fill="#FFC8AF"/>
<path fill-rule="evenodd" clip-rule="evenodd" d="M715.347 535.372L709.269 529.969C702.733 524.13 693.103 521.494 692.232 515.481C692.123 516.152 692.123 516.836 692.232 517.507C693.103 523.542 702.689 526.222 709.269 532.017L715.347 537.42C720.51 541.995 725.935 538.727 724.759 531.952C725.303 535.938 719.726 539.337 715.347 535.459" fill="#112B46"/>
<path fill-rule="evenodd" clip-rule="evenodd" d="M724.65 388.424C731.011 397.421 715.085 422.367 719.443 453.434C722.405 474.501 728.157 509.86 726.785 529.817C726.523 533.433 712.318 536.047 708.462 518.444C701.926 488.532 693.713 469.861 690.815 446.658L692.362 379.339L724.65 388.424Z" fill="#303072"/>
<path fill-rule="evenodd" clip-rule="evenodd" d="M704.279 385.134C706.044 413.108 686 447.334 687.329 469.926C688.702 493.216 686.175 521.538 686.109 546.723C686.109 546.723 665.521 556.483 664.585 541.407C661.556 492.039 652.101 476.658 664.868 386.31L704.279 385.134Z" fill="#46467F"/>
<path fill-rule="evenodd" clip-rule="evenodd" d="M666.981 358.075C666.76 340.143 668.219 322.229 671.339 304.568C673.714 301.104 676.66 298.068 680.053 295.592L686.589 287.618C691.273 286.464 695.892 285.2 700.467 283.762C707.866 281.507 715.769 281.507 723.168 283.762V283.762C732.885 287.88 734.737 294.437 730.423 306.986C730.532 307.553 721.883 342.062 720.75 352.607C720.75 353.631 728.135 381.583 729.769 392.999C729.769 392.999 722.667 399.534 720.706 401.125C706.262 419.055 659.051 397.312 657.265 387.77C656.742 384.175 662.493 373.086 666.981 358.075Z" fill="#56548C"/>
<path fill-rule="evenodd" clip-rule="evenodd" d="M690.163 241.432C688.363 243.374 687.055 245.72 686.35 248.273C685.409 251.586 684.997 255.027 685.13 258.469C685 260.843 684.019 262.194 684.52 263.392C685.022 264.59 687.941 258.055 690.73 257.401C693.518 256.747 693.126 265.135 687.004 267.51C684.39 271.497 686.481 281.322 687.941 283.457C689.401 285.592 698.464 288.338 706.111 285.636C713.758 282.935 718.812 275.222 725.152 265.113C731.492 255.005 725.152 247.684 725.152 247.684C728.267 240.756 704.586 231.824 694.651 231.562C688.594 231.693 690.163 241.432 690.163 241.432Z" fill="#112B46"/>
<path d="M701.339 311.301C704.411 300.691 692.624 287.684 682.167 291.148C678.442 292.368 675.283 293.61 673.322 296.9C668.463 305.048 667.657 332.869 663.67 349.71L661.797 350.058C668.224 358.773 671.252 363.13 676.938 370.995L678.137 370.516C679.814 369.622 701.295 311.409 701.339 311.301Z" fill="#56548C"/>
<path fill-rule="evenodd" clip-rule="evenodd" d="M209.513 634.544L226.942 632.997C226.942 632.997 238.009 636.113 244.545 637.05C251.081 637.986 255.787 636.897 257.334 639.228C257.621 639.714 257.751 640.278 257.704 640.84V640.84C258.031 644.283 254.981 647.507 253.347 648.749C249.97 651.232 246.244 652.736 236.114 651.842C233.478 650.797 228.75 650.1 227.007 652.736C224.349 653.977 214.219 655.394 209.578 652.736V650.557C206.855 647.812 209.513 634.544 209.513 634.544Z" fill="#112B46"/>
<path fill-rule="evenodd" clip-rule="evenodd" d="M201.91 475.198C196.202 504.675 216.637 536.897 214.982 560.709C212.803 593.389 211.452 607.572 208.097 634.129C208.097 634.129 221.343 641.972 231.103 632.996C241.082 580.971 245.504 571.624 244.175 476.418L201.91 475.198Z" fill="#23489D"/>
<path fill-rule="evenodd" clip-rule="evenodd" d="M282.476 339.643C288.336 346.462 283.413 374.501 275.199 381.298C266.986 388.096 260.189 385.656 253.064 379.643C245.94 373.63 241.779 358.51 243.479 347.138C245.81 331.648 265.788 320.188 282.476 339.643Z" fill="#F2AD91"/>
<path fill-rule="evenodd" clip-rule="evenodd" d="M284.502 342.497C285.331 345.086 285.518 347.838 285.047 350.515C284.462 354.007 283.322 357.383 281.67 360.515C280.733 362.802 281.06 364.48 280.08 365.373C279.099 366.266 279.252 358.837 276.942 357.072C274.633 355.308 271.322 363.216 275.94 368.096C276.616 372.976 270.363 381.168 268.054 382.519C265.744 383.87 256.137 382.388 250.211 376.528C244.285 370.667 242.999 361.277 241.496 349.077C239.993 336.877 249.187 332.868 249.187 332.868C249.339 325.068 275.33 327.225 284.546 331.321C290.254 334.153 284.502 342.497 284.502 342.497Z" fill="#56548C"/>
<path fill-rule="evenodd" clip-rule="evenodd" d="M242.65 650.338L259.949 648.769C259.949 648.769 271.038 651.885 277.574 652.821C284.11 653.758 288.816 652.669 290.362 655C290.652 655.477 290.782 656.034 290.733 656.59V656.59C291.06 660.033 288.009 663.279 286.376 664.521C282.999 666.982 279.273 668.486 269.143 667.592C266.485 666.547 261.757 665.849 260.014 668.486C257.378 669.749 247.247 671.144 242.716 668.486V666.307C239.993 663.409 242.65 650.338 242.65 650.338Z" fill="#112B46"/>
<path fill-rule="evenodd" clip-rule="evenodd" d="M215.046 482.584C213.15 512.649 237.747 545.525 239.185 569.729C241.124 602.997 241.189 626.504 241.363 653.585C241.363 653.585 263.498 664.064 264.479 647.877C267.725 594.827 271.211 580.884 257.507 483.804L215.046 482.584Z" fill="#23489D"/>
<path fill-rule="evenodd" clip-rule="evenodd" d="M272.956 386.245C260.603 380.101 240.581 363.217 224.22 385.287C208.969 405.984 202.586 468.074 200.843 480.558C198.468 497.355 245.222 506.331 255.636 505.874C256.677 505.919 257.699 505.591 258.519 504.947C259.338 504.304 259.9 503.388 260.102 502.366C260.973 499.316 258.49 497.115 259.165 494.283C259.654 492.672 260.486 491.185 261.605 489.926C262.684 488.678 263.433 487.18 263.784 485.569C264.176 482.911 262.52 480.405 262.215 477.726C262.119 475.762 262.384 473.798 262.999 471.931C267.248 456.136 274.612 441.43 278.707 425.613C281.496 414.872 285.461 397.77 276.529 388.859C275.545 387.735 274.325 386.843 272.956 386.245Z" fill="#EC827D"/>
<path fill-rule="evenodd" clip-rule="evenodd" d="M280.516 394.589C290.429 425.939 291.409 441.495 301.017 453.891C301.736 454.806 328.49 483.455 328.49 483.455C327.027 485.651 325.119 487.515 322.89 488.927C320.661 490.338 318.159 491.265 315.549 491.647C300.603 485.242 283.719 461.756 279.166 456.789C276.551 453.891 261.737 426.854 259.558 413.107C257.379 399.36 276.399 382.193 280.516 394.589Z" fill="#EC827D"/>
<path fill-rule="evenodd" clip-rule="evenodd" d="M661.796 372.759C667.297 372.527 672.766 371.798 678.135 370.58C678.135 370.58 691.207 342.628 694.715 329.186C694.715 329.186 690.009 357.944 686.828 367.29C683.647 376.637 679.225 380.362 672.362 379.491C668.289 379.026 664.25 378.298 660.271 377.312L661.796 372.759Z" fill="#303072"/>
</svg>
