<?xml version="1.0" encoding="utf-8"?>
<!-- Generator: Adobe Illustrator 16.0.0, SVG Export Plug-In . SVG Version: 6.00 Build 0)  -->
<!DOCTYPE svg PUBLIC "-//W3C//DTD SVG 1.1//EN" "http://www.w3.org/Graphics/SVG/1.1/DTD/svg11.dtd">
<svg version="1.1" id="Layer_1" xmlns="http://www.w3.org/2000/svg" xmlns:xlink="http://www.w3.org/1999/xlink" x="0px" y="0px"
	 width="1934.5px" height="944.5px" viewBox="-1560.5 -62.5 1934.5 944.5" enable-background="new -1560.5 -62.5 1934.5 944.5"
	 xml:space="preserve">
<g opacity="0.7">
	
		<linearGradient id="SVGID_1_" gradientUnits="userSpaceOnUse" x1="-1209.4263" y1="19.5913" x2="-1209.4263" y2="-761.7661" gradientTransform="matrix(0.8279 0.5609 0.5609 -0.8279 -224.3223 1040.8417)">
		<stop  offset="0" style="stop-color:#110303;stop-opacity:0.1"/>
		<stop  offset="1" style="stop-color:#FFFFFF;stop-opacity:0"/>
	</linearGradient>
	<polygon shape-rendering="crispEdges" fill="url(#SVGID_1_)" points="-1326.319,270.649 -1120.5,417.008 -1541.179,1068.863 
		-1746.999,922.505 	"/>
</g>
<linearGradient id="SVGID_2_" gradientUnits="userSpaceOnUse" x1="33.0718" y1="1152.8828" x2="33.0717" y2="141.3457" gradientTransform="matrix(0.8279 0.5609 0.5609 -0.8279 -177.5146 888.2899)">
	<stop  offset="0" style="stop-color:#110303;stop-opacity:0.1"/>
	<stop  offset="1" style="stop-color:#FFFFFF;stop-opacity:0"/>
</linearGradient>
<polygon opacity="0.7" fill="url(#SVGID_2_)" enable-background="new    " points="415.5,-102.5 599.5,25.5 17.457,849.645 
	-175.447,718.965 "/>
<path fill="none" stroke="#929493" stroke-width="3" stroke-opacity="0.37" stroke-dasharray="10,10" d="M-1538.999,354.723
	c22.58-55.723,120.447-156.388,331.28-113.271c263.542,53.896-244.375,71.863,186.875,256.009
	c431.25,184.147,479.166-121.268,685.205-85.336c206.04,35.932,134.17,211.095,349.79,264.992
	c215.63,53.896,306.67-53.897,335.42-80.845c23-21.56,25.63-30.335,24.06-32.028"/>
</svg>
